<svg xmlns="http://www.w3.org/2000/svg" version="1.1" xmlns:xlink="http://www.w3.org/1999/xlink" xmlns:svgjs="http://svgjs.dev/svgjs" viewBox="0 0 14.714438230699193 1.9184433576523165"><g transform="matrix(1,0,0,1,1.9224320302935296,0.42222167882615824)"><g><path d=" M 0.759 0.3644999999999998 Q 0.7335 0.3224999999999998 0.68925 0.2999999999999998 Q 0.645 0.27749999999999986 0.585 0.27749999999999986 Q 0.47400000000000003 0.27749999999999986 0.41025 0.3494999999999998 Q 0.34650000000000003 0.4214999999999999 0.34650000000000003 0.5429999999999998 Q 0.34650000000000003 0.6794999999999998 0.41475 0.7507499999999998 Q 0.483 0.8219999999999998 0.6135 0.8219999999999998 Q 0.768 0.8219999999999998 0.834 0.6824999999999999 L 0.5385 0.6824999999999999 L 0.5385 0.47099999999999986 L 1.0875000000000001 0.47099999999999986 L 1.0875000000000001 0.7559999999999998 Q 1.053 0.8399999999999999 0.9862500000000001 0.9134999999999999 Q 0.9195 0.9869999999999999 0.8175 1.03425 Q 0.7155 1.0815 0.585 1.0815 Q 0.426 1.0815 0.30375 1.0132499999999998 Q 0.1815 0.9449999999999998 0.11475 0.8227499999999999 Q 0.048 0.7004999999999999 0.048 0.5429999999999998 Q 0.048 0.3869999999999998 0.11475 0.2647499999999998 Q 0.1815 0.14249999999999985 0.303 0.07424999999999982 Q 0.4245 0.005999999999999783 0.5835 0.005999999999999783 Q 0.783 0.005999999999999783 0.9135 0.10199999999999987 Q 1.044 0.19799999999999984 1.0755000000000001 0.3644999999999998 L 0.759 0.3644999999999998 M 1.450528564453125 1.0147499999999998 Q 1.326028564453125 0.9449999999999998 1.2532785644531248 0.8212499999999998 Q 1.180528564453125 0.6974999999999998 1.180528564453125 0.5414999999999999 Q 1.180528564453125 0.38549999999999984 1.2532785644531248 0.2617499999999998 Q 1.326028564453125 0.1379999999999998 1.450528564453125 0.06899999999999973 Q 1.5750285644531248 -2.220446049250313e-16 1.7235285644531249 -2.220446049250313e-16 Q 1.873528564453125 -2.220446049250313e-16 1.9972785644531248 0.06899999999999973 Q 2.121028564453125 0.1379999999999998 2.193028564453125 0.2617499999999998 Q 2.265028564453125 0.38549999999999984 2.265028564453125 0.5414999999999999 Q 2.265028564453125 0.6974999999999998 2.193028564453125 0.8212499999999998 Q 2.121028564453125 0.9449999999999998 1.9965285644531248 1.0147499999999998 Q 1.872028564453125 1.0844999999999998 1.7235285644531249 1.0844999999999998 Q 1.5750285644531248 1.0844999999999998 1.450528564453125 1.0147499999999998 M 1.901278564453125 0.7379999999999998 Q 1.966528564453125 0.6644999999999999 1.966528564453125 0.5414999999999999 Q 1.966528564453125 0.41549999999999987 1.901278564453125 0.3427499999999998 Q 1.836028564453125 0.2699999999999998 1.7235285644531249 0.2699999999999998 Q 1.609528564453125 0.2699999999999998 1.545028564453125 0.3427499999999998 Q 1.480528564453125 0.41549999999999987 1.480528564453125 0.5414999999999999 Q 1.480528564453125 0.6659999999999998 1.545028564453125 0.7387499999999998 Q 1.609528564453125 0.8114999999999999 1.7235285644531249 0.8114999999999999 Q 1.836028564453125 0.8114999999999999 1.901278564453125 0.7379999999999998 M 3.0690095214843747 0.3644999999999998 Q 3.043509521484375 0.3224999999999998 2.9992595214843747 0.2999999999999998 Q 2.955009521484375 0.27749999999999986 2.8950095214843747 0.27749999999999986 Q 2.784009521484375 0.27749999999999986 2.7202595214843748 0.3494999999999998 Q 2.6565095214843746 0.4214999999999999 2.6565095214843746 0.5429999999999998 Q 2.6565095214843746 0.6794999999999998 2.724759521484375 0.7507499999999998 Q 2.793009521484375 0.8219999999999998 2.923509521484375 0.8219999999999998 Q 3.0780095214843746 0.8219999999999998 3.144009521484375 0.6824999999999999 L 2.8485095214843748 0.6824999999999999 L 2.8485095214843748 0.47099999999999986 L 3.397509521484375 0.47099999999999986 L 3.397509521484375 0.7559999999999998 Q 3.3630095214843747 0.8399999999999999 3.296259521484375 0.9134999999999999 Q 3.229509521484375 0.9869999999999999 3.1275095214843747 1.03425 Q 3.025509521484375 1.0815 2.8950095214843747 1.0815 Q 2.736009521484375 1.0815 2.6137595214843747 1.0132499999999998 Q 2.4915095214843745 0.9449999999999998 2.4247595214843747 0.8227499999999999 Q 2.358009521484375 0.7004999999999999 2.358009521484375 0.5429999999999998 Q 2.358009521484375 0.3869999999999998 2.4247595214843747 0.2647499999999998 Q 2.4915095214843745 0.14249999999999985 2.6130095214843747 0.07424999999999982 Q 2.734509521484375 0.005999999999999783 2.8935095214843747 0.005999999999999783 Q 3.0930095214843747 0.005999999999999783 3.2235095214843748 0.10199999999999987 Q 3.354009521484375 0.19799999999999984 3.3855095214843747 0.3644999999999998 L 3.0690095214843747 0.3644999999999998 M 3.7605380859374997 1.0147499999999998 Q 3.6360380859375 0.9449999999999998 3.5632880859375 0.8212499999999998 Q 3.4905380859374997 0.6974999999999998 3.4905380859374997 0.5414999999999999 Q 3.4905380859374997 0.38549999999999984 3.5632880859375 0.2617499999999998 Q 3.6360380859375 0.1379999999999998 3.7605380859374997 0.06899999999999973 Q 3.8850380859374996 -2.220446049250313e-16 4.0335380859375 -2.220446049250313e-16 Q 4.183538085937499 -2.220446049250313e-16 4.3072880859375 0.06899999999999973 Q 4.4310380859375 0.1379999999999998 4.5030380859375 0.2617499999999998 Q 4.5750380859375 0.38549999999999984 4.5750380859375 0.5414999999999999 Q 4.5750380859375 0.6974999999999998 4.5030380859375 0.8212499999999998 Q 4.4310380859375 0.9449999999999998 4.3065380859374995 1.0147499999999998 Q 4.182038085937499 1.0844999999999998 4.0335380859375 1.0844999999999998 Q 3.8850380859374996 1.0844999999999998 3.7605380859374997 1.0147499999999998 M 4.2112880859374995 0.7379999999999998 Q 4.276538085937499 0.6644999999999999 4.276538085937499 0.5414999999999999 Q 4.276538085937499 0.41549999999999987 4.2112880859374995 0.3427499999999998 Q 4.1460380859375 0.2699999999999998 4.0335380859375 0.2699999999999998 Q 3.9195380859374995 0.2699999999999998 3.8550380859374997 0.3427499999999998 Q 3.7905380859374995 0.41549999999999987 3.7905380859374995 0.5414999999999999 Q 3.7905380859374995 0.6659999999999998 3.8550380859374997 0.7387499999999998 Q 3.9195380859374995 0.8114999999999999 4.0335380859375 0.8114999999999999 Q 4.1460380859375 0.8114999999999999 4.2112880859374995 0.7379999999999998 M 5.37901904296875 0.3644999999999998 Q 5.35351904296875 0.3224999999999998 5.30926904296875 0.2999999999999998 Q 5.265019042968749 0.27749999999999986 5.2050190429687495 0.27749999999999986 Q 5.09401904296875 0.27749999999999986 5.030269042968749 0.3494999999999998 Q 4.966519042968749 0.4214999999999999 4.966519042968749 0.5429999999999998 Q 4.966519042968749 0.6794999999999998 5.034769042968749 0.7507499999999998 Q 5.103019042968749 0.8219999999999998 5.23351904296875 0.8219999999999998 Q 5.388019042968749 0.8219999999999998 5.454019042968749 0.6824999999999999 L 5.1585190429687495 0.6824999999999999 L 5.1585190429687495 0.47099999999999986 L 5.70751904296875 0.47099999999999986 L 5.70751904296875 0.7559999999999998 Q 5.6730190429687495 0.8399999999999999 5.60626904296875 0.9134999999999999 Q 5.53951904296875 0.9869999999999999 5.437519042968749 1.03425 Q 5.33551904296875 1.0815 5.2050190429687495 1.0815 Q 5.04601904296875 1.0815 4.9237690429687495 1.0132499999999998 Q 4.801519042968749 0.9449999999999998 4.7347690429687495 0.8227499999999999 Q 4.66801904296875 0.7004999999999999 4.66801904296875 0.5429999999999998 Q 4.66801904296875 0.3869999999999998 4.7347690429687495 0.2647499999999998 Q 4.801519042968749 0.14249999999999985 4.9230190429687495 0.07424999999999982 Q 5.04451904296875 0.005999999999999783 5.2035190429687495 0.005999999999999783 Q 5.40301904296875 0.005999999999999783 5.5335190429687495 0.10199999999999987 Q 5.66401904296875 0.19799999999999984 5.6955190429687494 0.3644999999999998 L 5.37901904296875 0.3644999999999998 M 6.1305476074218745 0.2519999999999998 L 6.1305476074218745 0.4244999999999999 L 6.468047607421875 0.4244999999999999 L 6.468047607421875 0.6479999999999999 L 6.1305476074218745 0.6479999999999999 L 6.1305476074218745 0.8384999999999998 L 6.513047607421875 0.8384999999999998 L 6.513047607421875 1.0739999999999998 L 5.836547607421874 1.0739999999999998 L 5.836547607421874 0.016499999999999737 L 6.513047607421875 0.016499999999999737 L 6.513047607421875 0.2519999999999998 L 6.1305476074218745 0.2519999999999998 M 7.452008056640624 0.016499999999999737 L 7.452008056640624 0.25049999999999983 L 7.170008056640624 0.25049999999999983 L 7.170008056640624 1.0739999999999998 L 6.876008056640624 1.0739999999999998 L 6.876008056640624 0.25049999999999983 L 6.597008056640624 0.25049999999999983 L 6.597008056640624 0.016499999999999737 L 7.452008056640624 0.016499999999999737 M 8.227513916015624 0.9014999999999999 L 7.852513916015624 0.9014999999999999 L 7.795513916015624 1.0739999999999998 L 7.486513916015624 1.0739999999999998 L 7.872013916015624 0.016499999999999737 L 8.211013916015624 0.016499999999999737 L 8.595013916015624 1.0739999999999998 L 8.284513916015625 1.0739999999999998 L 8.227513916015624 0.9014999999999999 M 8.154013916015625 0.6764999999999999 L 8.040013916015624 0.3344999999999998 L 7.9275139160156245 0.6764999999999999 L 8.154013916015625 0.6764999999999999 M 10.177521240234373 0.016499999999999737 L 9.918021240234374 1.0739999999999998 L 9.556521240234375 1.0739999999999998 L 9.411021240234374 0.4259999999999998 L 9.262521240234374 1.0739999999999998 L 8.901021240234375 1.0739999999999998 L 8.644521240234374 0.016499999999999737 L 8.962521240234373 0.016499999999999737 L 9.085521240234375 0.7394999999999998 L 9.252021240234374 0.016499999999999737 L 9.574521240234374 0.016499999999999737 L 9.736521240234374 0.7334999999999998 L 9.859521240234374 0.016499999999999737 L 10.177521240234373 0.016499999999999737 M 10.968004394531249 0.9014999999999999 L 10.593004394531249 0.9014999999999999 L 10.536004394531249 1.0739999999999998 L 10.22700439453125 1.0739999999999998 L 10.61250439453125 0.016499999999999737 L 10.951504394531248 0.016499999999999737 L 11.335504394531249 1.0739999999999998 L 11.02500439453125 1.0739999999999998 L 10.968004394531249 0.9014999999999999 M 10.89450439453125 0.6764999999999999 L 10.780504394531249 0.3344999999999998 L 10.668004394531248 0.6764999999999999 L 10.89450439453125 0.6764999999999999 M 12.39001171875 0.016499999999999737 L 12.01801171875 0.7379999999999998 L 12.01801171875 1.0739999999999998 L 11.722511718749999 1.0739999999999998 L 11.722511718749999 0.7379999999999998 L 11.350511718749999 0.016499999999999737 L 11.68651171875 0.016499999999999737 L 11.87251171875 0.4244999999999999 L 12.05851171875 0.016499999999999737 L 12.39001171875 0.016499999999999737" fill="#b0ffce" fill-rule="nonzero"></path></g><g></g><g clip-path="url(#SvgjsClipPath1001)"><g clip-path="url(#a0d1ed51e-8a6d-4ac5-ac9f-1ce3dc226f50946c007a-44dd-424e-acb1-acd29dfcef1e)"><path d=" M -0.9632103514673714 1.1002103514673713 C -0.6521577225072144 1.1002103514673713 -0.40000000000000013 0.8480526289601571 -0.40000000000000013 0.5369999999999999 C -0.40000000000000013 0.22594737103984286 -0.6521577225072144 -0.026210351467371384 -0.9632103514673714 -0.026210351467371384 C -1.2742629804275285 -0.026210351467371384 -1.5264207029347427 0.22594737103984286 -1.5264207029347427 0.5369999999999999 C -1.5264207029347427 0.8480526289601571 -1.2742629804275285 1.1002103514673713 -0.9632103514673714 1.1002103514673713" fill="#b0ffce" transform="matrix(1,0,0,1,0,0)" fill-rule="nonzero"></path></g><g clip-path="url(#a0d1ed51e-8a6d-4ac5-ac9f-1ce3dc226f50946c007a-44dd-424e-acb1-acd29dfcef1e)"><path d=" M -0.9632103514673714 0.8735421214416916 C -1.1490753995551186 0.8735421214416916 -1.2997510648831845 0.7228692721653832 -1.2997510648831845 0.5369985919741214 C -1.2997510648831845 0.35113495191225286 -1.1490753995551186 0.20045928658418694 -0.9632103514673714 0.20045928658418694 C -0.7773453033796243 0.20045928658418694 -0.6266696380515584 0.35113495191225275 -0.6266696380515584 0.5369985919741213 C -0.6266696380515584 0.7228692721653832 -0.7773453033796243 0.8735421214416916 -0.9632103514673714 0.8735421214416916" fill="#b0ffce" transform="matrix(1,0,0,1,0,0)" fill-rule="nonzero"></path></g><g clip-path="url(#b0d1ed51e-8a6d-4ac5-ac9f-1ce3dc226f50946c007a-44dd-424e-acb1-acd29dfcef1e)"><path d=" M -1.0573608178962932 0.5890209241132838 C -1.0573608178962932 0.5518335526317719 -0.7473585762416227 0.5246445729146846 -0.7473585762416227 0.5246445729146846 C -0.7473585762416227 0.5246445729146846 -1.2252453755134447 0.5363325957335112 -1.2252453755134447 0.6011482510062549 C -1.2252453755134447 0.6558247119267073 -0.9220467149045 0.6440367192704952 -0.9220467149045 0.7149786951413254 C -0.9220467149045 0.7566731574604548 -1.0153819343496728 0.8065933069627652 -1.1051506242441784 0.8449845405705386 C -1.061969286597175 0.8649024746501822 -1.0140696542307537 0.8763187484744257 -0.9634004349609917 0.8763187484744257 C -0.8246239963335528 0.8763187484744257 -0.7054895187135385 0.7928847670080494 -0.6529518491027834 0.6735292293250842 C -0.7667991895483978 0.6027027115763048 -1.0573608178962932 0.6188626245857825 -1.0573608178962932 0.5890209241132838" fill="#facf0e" transform="matrix(1,0,0,1,0,0)" fill-rule="nonzero"></path></g><g clip-path="url(#b0d1ed51e-8a6d-4ac5-ac9f-1ce3dc226f50946c007a-44dd-424e-acb1-acd29dfcef1e)"><path d=" M -1.0804116095559742 0.6188161597317863 L -1.0798835998514735 0.6190160994065572 L -1.080284887226894 0.6191428217356374 C -0.995295037164589 0.643404515650973 -0.7871648758574579 0.6385074016449642 -0.7871648758574579 0.7278762121899282 C -0.7871648758574579 0.8253608838995368 -0.9358495925930866 0.8876336444354053 -0.9358495925930866 0.8876336444354053 L -0.894571905934043 0.894428777325859 C -0.8679553593520279 0.8893324314906721 -0.8419972772092137 0.881255334696257 -0.8171882116683048 0.8703501267747503 C -0.7920281972423787 0.8389553737580804 -0.7556771931327958 0.7942223915927844 -0.7556771931327958 0.7289899606599548 C -0.7556771931327958 0.6328654419491399 -0.991587705026055 0.6425484359167426 -1.0804116095559742 0.6188161597317863" fill="#1192dc" transform="matrix(1,0,0,1,0,0)" fill-rule="nonzero"></path></g><g clip-path="url(#c0d1ed51e-8a6d-4ac5-ac9f-1ce3dc226f50946c007a-44dd-424e-acb1-acd29dfcef1e)"><path d=" M -0.9588032304671393 0.27345134813435823 C -0.9617393931204883 0.27330121115287087 -0.9646813098142549 0.27330121115287087 -0.9676174724676039 0.27345134813435823 C -1.0256760115486176 0.27639412222077525 -1.0590645292094822 0.34129003496860305 -1.029997242970251 0.3916368163121501 L -0.9632089434414929 0.5073117743482761 L -0.8964234599644919 0.3916368163121501 C -0.867356173725261 0.34129003496860305 -0.9007446913861255 0.27639412222077525 -0.9588032304671393 0.27345134813435823 M -0.9632089434414929 0.3863848797847168 C -0.982249677398726 0.3863848797847168 -0.9976830490548106 0.37095150812863215 -0.9976830490548106 0.35191077417139904 C -0.9976830490548106 0.33287144824004455 -0.982249677398726 0.31743948460983856 -0.9632089434414929 0.31743948460983856 C -0.9441696175101384 0.31743948460983856 -0.9287362458540538 0.33287144824004455 -0.9287362458540538 0.35191077417139904 C -0.9287362458540538 0.37095150812863215 -0.9441696175101384 0.3863848797847168 -0.9632089434414929 0.3863848797847168" fill="#1192dc" transform="matrix(1,0,0,1,0,0)" fill-rule="nonzero"></path></g><g clip-path="url(#c0d1ed51e-8a6d-4ac5-ac9f-1ce3dc226f50946c007a-44dd-424e-acb1-acd29dfcef1e)"><path d=" M -0.6020517135889197 0.5370014080258786 C -0.6020517135889197 0.3375390540278304 -0.7637494054952021 0.1758427701474268 -0.9632103514673716 0.1758427701474268 C -1.1626684813877837 0.1758427701474268 -1.3243689893458233 0.3375390540278304 -1.3243689893458233 0.5370014080258786 C -1.3243689893458233 0.7364637620239268 -1.1626684813877837 0.8981600459043305 -0.9632103514673716 0.8981600459043305 C -0.7637494054952021 0.8981600459043305 -0.6020517135889197 0.7364637620239268 -0.6020517135889197 0.5370014080258786 M -0.6284465667104381 0.5370014080258786 C -0.6284465667104381 0.72188928615383 -0.7783266974170563 0.8717623767310547 -0.9632103514673716 0.8717623767310547 C -1.1480911894659296 0.8717623767310547 -1.2979685041207905 0.72188928615383 -1.2979685041207905 0.5370014080258786 C -1.2979685041207905 0.3521163459496846 -1.1480911894659296 0.20223903129482382 -0.9632103514673716 0.20223903129482382 C -0.7783266974170563 0.20223903129482382 -0.6284465667104381 0.3521163459496846 -0.6284465667104381 0.5370014080258786" fill="#1192dc" transform="matrix(1,0,0,1,0,0)" fill-rule="nonzero"></path></g></g></g><defs><clipPath id="SvgjsClipPath1001"><path d=" M -1.5264207029347427 -0.026210351467371384 h 1.1264207029347426 v 1.1264207029347426 h -1.1264207029347426 Z"></path></clipPath><clipPath id="a0d1ed51e-8a6d-4ac5-ac9f-1ce3dc226f50946c007a-44dd-424e-acb1-acd29dfcef1e"><path d=" M -1.5264207029347427 1.1002103514673713 L -0.40000000000000013 1.1002103514673713 L -0.40000000000000013 -0.026210351467371384 L -1.5264207029347427 -0.026210351467371384 Z"></path></clipPath><clipPath id="b0d1ed51e-8a6d-4ac5-ac9f-1ce3dc226f50946c007a-44dd-424e-acb1-acd29dfcef1e"><path d=" M -1.2997496568573057 0.5369985919741213 C -1.2997496568573057 0.7228692721653832 -1.1490753995551186 0.8735421214416916 -0.9632103514673714 0.8735421214416916 C -0.777346711405503 0.8735421214416916 -0.6266710460774372 0.7228692721653831 -0.6266710460774372 0.5369985919741213 C -0.6266710460774372 0.3511335438863741 -0.777346711405503 0.20045928658418705 -0.9632103514673714 0.20045928658418705 C -1.1490753995551186 0.20045928658418705 -1.2997496568573057 0.3511335438863741 -1.2997496568573057 0.5369985919741213"></path></clipPath><clipPath id="c0d1ed51e-8a6d-4ac5-ac9f-1ce3dc226f50946c007a-44dd-424e-acb1-acd29dfcef1e"><path d=" M -1.5264207029347427 1.1002103514673713 L -0.40000000000000013 1.1002103514673713 L -0.40000000000000013 -0.026210351467371384 L -1.5264207029347427 -0.026210351467371384 Z"></path></clipPath></defs></svg>