<svg xmlns="http://www.w3.org/2000/svg" version="1.1" xmlns:xlink="http://www.w3.org/1999/xlink" xmlns:svgjs="http://svgjs.dev/svgjs" viewBox="0 0 12.107811341158337 3.433641419283337"><g transform="matrix(1,0,0,1,3.3178371584214807,1.0858392643291686)"><rect width="12.107811341158337" height="12.107811341158337" x="-3.3178371584214803" y="-5.4229242252666685" fill="#262626"></rect><g><path d=" M 0.359619140625 1.273681640625 Q 0.337646484375 1.273681640625 0.308349609375 1.2689208984375 Q 0.279052734375 1.26416015625 0.2479248046875 1.248779296875 Q 0.216796875 1.2333984375 0.186767578125 1.2052001953125 Q 0.15673828125 1.177001953125 0.1329345703125 1.1304931640625 Q 0.109130859375 1.083984375 0.094482421875 1.0162353515625 Q 0.079833984375 0.948486328125 0.079833984375 0.854736328125 L 0.079833984375 0.41162109375 Q 0.079833984375 0.317138671875 0.09521484375 0.2501220703125 Q 0.110595703125 0.18310546875 0.13623046875 0.1373291015625 Q 0.161865234375 0.091552734375 0.1951904296875 0.064453125 Q 0.228515625 0.037353515625 0.264404296875 0.0230712890625 Q 0.30029296875 0.0087890625 0.33544921875 0.00439453125 Q 0.37060546875 0 0.400634765625 0 Q 0.476806640625 0 0.5291748046875 0.0208740234375 Q 0.58154296875 0.041748046875 0.6141357421875 0.0780029296875 Q 0.646728515625 0.1142578125 0.6610107421875 0.16259765625 Q 0.67529296875 0.2109375 0.67529296875 0.26513671875 Q 0.67529296875 0.305419921875 0.6705322265625 0.3394775390625 Q 0.665771484375 0.37353515625 0.65771484375 0.41455078125 L 0.506103515625 0.41455078125 L 0.506103515625 0.355224609375 Q 0.506103515625 0.1494140625 0.3955078125 0.1494140625 Q 0.365478515625 0.1494140625 0.343505859375 0.15966796875 Q 0.321533203125 0.169921875 0.306884765625 0.1944580078125 Q 0.292236328125 0.218994140625 0.2852783203125 0.25927734375 Q 0.2783203125 0.299560546875 0.2783203125 0.359619140625 L 0.2783203125 0.926513671875 Q 0.2783203125 0.985107421875 0.2852783203125 1.02392578125 Q 0.292236328125 1.062744140625 0.3065185546875 1.086181640625 Q 0.32080078125 1.109619140625 0.3424072265625 1.1195068359375 Q 0.364013671875 1.12939453125 0.39404296875 1.12939453125 Q 0.425537109375 1.12939453125 0.4482421875 1.1129150390625 Q 0.470947265625 1.096435546875 0.485595703125 1.06787109375 Q 0.500244140625 1.039306640625 0.5072021484375 1.00048828125 Q 0.51416015625 0.961669921875 0.51416015625 0.916259765625 L 0.51416015625 0.7529296875 L 0.416748046875 0.7529296875 L 0.416748046875 0.62841796875 L 0.69873046875 0.62841796875 L 0.69873046875 1.261962890625 L 0.57275390625 1.261962890625 L 0.55224609375 1.143310546875 Q 0.516357421875 1.212890625 0.4698486328125 1.2432861328125 Q 0.42333984375 1.273681640625 0.359619140625 1.273681640625 M 1.150634765625 1.27294921875 Q 1.12060546875 1.27294921875 1.08544921875 1.2681884765625 Q 1.05029296875 1.263427734375 1.015869140625 1.248046875 Q 0.9814453125 1.232666015625 0.9495849609375 1.2044677734375 Q 0.917724609375 1.17626953125 0.8931884765625 1.130126953125 Q 0.86865234375 1.083984375 0.85400390625 1.0162353515625 Q 0.83935546875 0.948486328125 0.83935546875 0.854736328125 L 0.83935546875 0.41162109375 Q 0.83935546875 0.317138671875 0.8543701171875 0.2501220703125 Q 0.869384765625 0.18310546875 0.894287109375 0.1373291015625 Q 0.919189453125 0.091552734375 0.9510498046875 0.064453125 Q 0.98291015625 0.037353515625 1.0177001953125 0.0230712890625 Q 1.052490234375 0.0087890625 1.0869140625 0.00439453125 Q 1.121337890625 0 1.150634765625 0 Q 1.178466796875 0 1.2125244140625 0.0040283203125 Q 1.24658203125 0.008056640625 1.2806396484375 0.0216064453125 Q 1.314697265625 0.03515625 1.346923828125 0.0618896484375 Q 1.379150390625 0.088623046875 1.404052734375 0.1343994140625 Q 1.428955078125 0.18017578125 1.4439697265625 0.2479248046875 Q 1.458984375 0.315673828125 1.458984375 0.41162109375 L 1.458984375 0.854736328125 Q 1.458984375 0.94775390625 1.443603515625 1.0147705078125 Q 1.42822265625 1.081787109375 1.4033203125 1.1282958984375 Q 1.37841796875 1.1748046875 1.3458251953125 1.2030029296875 Q 1.313232421875 1.231201171875 1.2791748046875 1.2469482421875 Q 1.2451171875 1.2626953125 1.21142578125 1.267822265625 Q 1.177734375 1.27294921875 1.150634765625 1.27294921875 M 1.150634765625 1.130126953125 Q 1.178466796875 1.130126953125 1.1993408203125 1.12060546875 Q 1.22021484375 1.111083984375 1.2337646484375 1.087646484375 Q 1.247314453125 1.064208984375 1.2542724609375 1.0257568359375 Q 1.26123046875 0.9873046875 1.26123046875 0.9287109375 L 1.26123046875 0.359619140625 Q 1.26123046875 0.299560546875 1.2542724609375 0.25927734375 Q 1.247314453125 0.218994140625 1.2337646484375 0.1944580078125 Q 1.22021484375 0.169921875 1.1993408203125 0.15966796875 Q 1.178466796875 0.1494140625 1.150634765625 0.1494140625 Q 1.1220703125 0.1494140625 1.100830078125 0.15966796875 Q 1.07958984375 0.169921875 1.065673828125 0.1944580078125 Q 1.0517578125 0.218994140625 1.0447998046875 0.25927734375 Q 1.037841796875 0.299560546875 1.037841796875 0.359619140625 L 1.037841796875 0.9287109375 Q 1.037841796875 0.9873046875 1.0447998046875 1.0257568359375 Q 1.0517578125 1.064208984375 1.065673828125 1.087646484375 Q 1.07958984375 1.111083984375 1.100830078125 1.12060546875 Q 1.1220703125 1.130126953125 1.150634765625 1.130126953125 M 1.89111328125 1.273681640625 Q 1.869140625 1.273681640625 1.83984375 1.2689208984375 Q 1.810546875 1.26416015625 1.7794189453125 1.248779296875 Q 1.748291015625 1.2333984375 1.71826171875 1.2052001953125 Q 1.688232421875 1.177001953125 1.6644287109375 1.1304931640625 Q 1.640625 1.083984375 1.6259765625 1.0162353515625 Q 1.611328125 0.948486328125 1.611328125 0.854736328125 L 1.611328125 0.41162109375 Q 1.611328125 0.317138671875 1.626708984375 0.2501220703125 Q 1.64208984375 0.18310546875 1.667724609375 0.1373291015625 Q 1.693359375 0.091552734375 1.7266845703125 0.064453125 Q 1.760009765625 0.037353515625 1.7958984375 0.0230712890625 Q 1.831787109375 0.0087890625 1.866943359375 0.00439453125 Q 1.902099609375 0 1.93212890625 0 Q 2.00830078125 0 2.0606689453125 0.0208740234375 Q 2.113037109375 0.041748046875 2.1456298828125 0.0780029296875 Q 2.17822265625 0.1142578125 2.1925048828125 0.16259765625 Q 2.206787109375 0.2109375 2.206787109375 0.26513671875 Q 2.206787109375 0.305419921875 2.2020263671875 0.3394775390625 Q 2.197265625 0.37353515625 2.189208984375 0.41455078125 L 2.03759765625 0.41455078125 L 2.03759765625 0.355224609375 Q 2.03759765625 0.1494140625 1.927001953125 0.1494140625 Q 1.89697265625 0.1494140625 1.875 0.15966796875 Q 1.85302734375 0.169921875 1.83837890625 0.1944580078125 Q 1.82373046875 0.218994140625 1.8167724609375 0.25927734375 Q 1.809814453125 0.299560546875 1.809814453125 0.359619140625 L 1.809814453125 0.926513671875 Q 1.809814453125 0.985107421875 1.8167724609375 1.02392578125 Q 1.82373046875 1.062744140625 1.8380126953125 1.086181640625 Q 1.852294921875 1.109619140625 1.8739013671875 1.1195068359375 Q 1.8955078125 1.12939453125 1.925537109375 1.12939453125 Q 1.95703125 1.12939453125 1.979736328125 1.1129150390625 Q 2.00244140625 1.096435546875 2.01708984375 1.06787109375 Q 2.03173828125 1.039306640625 2.0386962890625 1.00048828125 Q 2.045654296875 0.961669921875 2.045654296875 0.916259765625 L 2.045654296875 0.7529296875 L 1.9482421875 0.7529296875 L 1.9482421875 0.62841796875 L 2.230224609375 0.62841796875 L 2.230224609375 1.261962890625 L 2.104248046875 1.261962890625 L 2.083740234375 1.143310546875 Q 2.0478515625 1.212890625 2.0013427734375 1.2432861328125 Q 1.954833984375 1.273681640625 1.89111328125 1.273681640625 M 2.68212890625 1.27294921875 Q 2.652099609375 1.27294921875 2.616943359375 1.2681884765625 Q 2.581787109375 1.263427734375 2.54736328125 1.248046875 Q 2.512939453125 1.232666015625 2.4810791015625 1.2044677734375 Q 2.44921875 1.17626953125 2.4246826171875 1.130126953125 Q 2.400146484375 1.083984375 2.385498046875 1.0162353515625 Q 2.370849609375 0.948486328125 2.370849609375 0.854736328125 L 2.370849609375 0.41162109375 Q 2.370849609375 0.317138671875 2.3858642578125 0.2501220703125 Q 2.40087890625 0.18310546875 2.42578125 0.1373291015625 Q 2.45068359375 0.091552734375 2.4825439453125 0.064453125 Q 2.514404296875 0.037353515625 2.5491943359375 0.0230712890625 Q 2.583984375 0.0087890625 2.618408203125 0.00439453125 Q 2.65283203125 0 2.68212890625 0 Q 2.7099609375 0 2.7440185546875 0.0040283203125 Q 2.778076171875 0.008056640625 2.8121337890625 0.0216064453125 Q 2.84619140625 0.03515625 2.87841796875 0.0618896484375 Q 2.91064453125 0.088623046875 2.935546875 0.1343994140625 Q 2.96044921875 0.18017578125 2.9754638671875 0.2479248046875 Q 2.990478515625 0.315673828125 2.990478515625 0.41162109375 L 2.990478515625 0.854736328125 Q 2.990478515625 0.94775390625 2.97509765625 1.0147705078125 Q 2.959716796875 1.081787109375 2.934814453125 1.1282958984375 Q 2.909912109375 1.1748046875 2.8773193359375 1.2030029296875 Q 2.8447265625 1.231201171875 2.8106689453125 1.2469482421875 Q 2.776611328125 1.2626953125 2.742919921875 1.267822265625 Q 2.709228515625 1.27294921875 2.68212890625 1.27294921875 M 2.68212890625 1.130126953125 Q 2.7099609375 1.130126953125 2.7308349609375 1.12060546875 Q 2.751708984375 1.111083984375 2.7652587890625 1.087646484375 Q 2.77880859375 1.064208984375 2.7857666015625 1.0257568359375 Q 2.792724609375 0.9873046875 2.792724609375 0.9287109375 L 2.792724609375 0.359619140625 Q 2.792724609375 0.299560546875 2.7857666015625 0.25927734375 Q 2.77880859375 0.218994140625 2.7652587890625 0.1944580078125 Q 2.751708984375 0.169921875 2.7308349609375 0.15966796875 Q 2.7099609375 0.1494140625 2.68212890625 0.1494140625 Q 2.653564453125 0.1494140625 2.63232421875 0.15966796875 Q 2.611083984375 0.169921875 2.59716796875 0.1944580078125 Q 2.583251953125 0.218994140625 2.5762939453125 0.25927734375 Q 2.5693359375 0.299560546875 2.5693359375 0.359619140625 L 2.5693359375 0.9287109375 Q 2.5693359375 0.9873046875 2.5762939453125 1.0257568359375 Q 2.583251953125 1.064208984375 2.59716796875 1.087646484375 Q 2.611083984375 1.111083984375 2.63232421875 1.12060546875 Q 2.653564453125 1.130126953125 2.68212890625 1.130126953125 M 3.422607421875 1.273681640625 Q 3.400634765625 1.273681640625 3.371337890625 1.2689208984375 Q 3.342041015625 1.26416015625 3.3109130859375 1.248779296875 Q 3.27978515625 1.2333984375 3.249755859375 1.2052001953125 Q 3.2197265625 1.177001953125 3.1959228515625 1.1304931640625 Q 3.172119140625 1.083984375 3.157470703125 1.0162353515625 Q 3.142822265625 0.948486328125 3.142822265625 0.854736328125 L 3.142822265625 0.41162109375 Q 3.142822265625 0.317138671875 3.158203125 0.2501220703125 Q 3.173583984375 0.18310546875 3.19921875 0.1373291015625 Q 3.224853515625 0.091552734375 3.2581787109375 0.064453125 Q 3.29150390625 0.037353515625 3.327392578125 0.0230712890625 Q 3.36328125 0.0087890625 3.3984375 0.00439453125 Q 3.43359375 0 3.463623046875 0 Q 3.539794921875 0 3.5921630859375 0.0208740234375 Q 3.64453125 0.041748046875 3.6771240234375 0.0780029296875 Q 3.709716796875 0.1142578125 3.7239990234375 0.16259765625 Q 3.73828125 0.2109375 3.73828125 0.26513671875 Q 3.73828125 0.305419921875 3.7335205078125 0.3394775390625 Q 3.728759765625 0.37353515625 3.720703125 0.41455078125 L 3.569091796875 0.41455078125 L 3.569091796875 0.355224609375 Q 3.569091796875 0.1494140625 3.45849609375 0.1494140625 Q 3.428466796875 0.1494140625 3.406494140625 0.15966796875 Q 3.384521484375 0.169921875 3.369873046875 0.1944580078125 Q 3.355224609375 0.218994140625 3.3482666015625 0.25927734375 Q 3.34130859375 0.299560546875 3.34130859375 0.359619140625 L 3.34130859375 0.926513671875 Q 3.34130859375 0.985107421875 3.3482666015625 1.02392578125 Q 3.355224609375 1.062744140625 3.3695068359375 1.086181640625 Q 3.3837890625 1.109619140625 3.4053955078125 1.1195068359375 Q 3.427001953125 1.12939453125 3.45703125 1.12939453125 Q 3.488525390625 1.12939453125 3.51123046875 1.1129150390625 Q 3.533935546875 1.096435546875 3.548583984375 1.06787109375 Q 3.563232421875 1.039306640625 3.5701904296875 1.00048828125 Q 3.5771484375 0.961669921875 3.5771484375 0.916259765625 L 3.5771484375 0.7529296875 L 3.479736328125 0.7529296875 L 3.479736328125 0.62841796875 L 3.76171875 0.62841796875 L 3.76171875 1.261962890625 L 3.6357421875 1.261962890625 L 3.615234375 1.143310546875 Q 3.579345703125 1.212890625 3.5328369140625 1.2432861328125 Q 3.486328125 1.273681640625 3.422607421875 1.273681640625 M 3.936767578125 0.010986328125 L 4.400390625 0.010986328125 L 4.400390625 0.160400390625 L 4.12646484375 0.160400390625 L 4.12646484375 0.53466796875 L 4.338134765625 0.53466796875 L 4.338134765625 0.68408203125 L 4.12646484375 0.68408203125 L 4.12646484375 1.112548828125 L 4.40771484375 1.112548828125 L 4.40771484375 1.261962890625 L 3.936767578125 1.261962890625 L 3.936767578125 0.010986328125 M 4.660400390625 0.160400390625 L 4.458984375 0.160400390625 L 4.458984375 0.010986328125 L 5.05078125 0.010986328125 L 5.05078125 0.160400390625 L 4.85009765625 0.160400390625 L 4.85009765625 1.261962890625 L 4.660400390625 1.261962890625 L 4.660400390625 0.160400390625 M 5.316650390625 0.010986328125 L 5.534912109375 0.010986328125 L 5.766357421875 1.261962890625 L 5.574462890625 1.261962890625 L 5.5400390625 1.037841796875 L 5.3115234375 1.037841796875 L 5.278564453125 1.261962890625 L 5.0859375 1.261962890625 L 5.316650390625 0.010986328125 M 5.51806640625 0.89501953125 L 5.43017578125 0.271728515625 L 5.422119140625 0.271728515625 L 5.33349609375 0.89501953125 L 5.51806640625 0.89501953125 M 5.807373046875 0.010986328125 L 5.989013671875 0.010986328125 L 6.0732421875 0.766845703125 L 6.082763671875 0.943359375 L 6.10107421875 0.943359375 L 6.11865234375 0.744873046875 L 6.25341796875 0.010986328125 L 6.405029296875 0.010986328125 L 6.533935546875 0.744873046875 L 6.548583984375 0.943359375 L 6.567626953125 0.943359375 L 6.576416015625 0.766845703125 L 6.6533203125 0.010986328125 L 6.835693359375 0.010986328125 L 6.66064453125 1.261962890625 L 6.468017578125 1.261962890625 L 6.36474609375 0.66064453125 L 6.33251953125 0.399169921875 L 6.31787109375 0.399169921875 L 6.286376953125 0.66064453125 L 6.177978515625 1.261962890625 L 5.987548828125 1.261962890625 L 5.807373046875 0.010986328125 M 7.108154296875 0.010986328125 L 7.326416015625 0.010986328125 L 7.557861328125 1.261962890625 L 7.365966796875 1.261962890625 L 7.33154296875 1.037841796875 L 7.10302734375 1.037841796875 L 7.070068359375 1.261962890625 L 6.87744140625 1.261962890625 L 7.108154296875 0.010986328125 M 7.3095703125 0.89501953125 L 7.2216796875 0.271728515625 L 7.213623046875 0.271728515625 L 7.125 0.89501953125 L 7.3095703125 0.89501953125 M 7.827392578125 0.84521484375 L 7.575439453125 0.010986328125 L 7.7666015625 0.010986328125 L 7.919677734375 0.609375 L 7.928466796875 0.609375 L 8.080078125 0.010986328125 L 8.2705078125 0.010986328125 L 8.01708984375 0.84521484375 L 8.01708984375 1.261962890625 L 7.827392578125 1.261962890625 L 7.827392578125 0.84521484375" fill="#ffffff" fill-rule="nonzero"></path></g><g></g><g clip-path="url(#SvgjsClipPath1114)"><g clip-path="url(#ad8fc84fd-db7a-4084-b81b-13f532e4570fd386fed5-2940-43f1-b61e-2a99751b959c)"><path d=" M -0.8872617005737267 0.48183986626680775 C -1.1559393822299309 0.48183986626680775 -1.3744949801064528 0.7004402960608427 -1.3744949801064528 0.9690731457995341 C -1.3744949801064528 1.2795341745779778 -0.933707567117332 1.7973876537721734 -0.9149229936793295 1.8192656295185827 C -0.908023405555439 1.827377438008671 -0.89791091431274 1.8320518649558384 -0.8872617005737267 1.8320518649558384 C -0.8766124868347132 1.8320518649558384 -0.8664999955920141 1.827377438008671 -0.8596004074681236 1.8192656295185827 C -0.8408158340301213 1.7973876537721734 -0.40002842104100056 1.2795341745779778 -0.40002842104100056 0.9690731457995341 C -0.40002842104100056 0.7004402960608427 -0.6185840189175225 0.48183986626680775 -0.8872617005737267 0.48183986626680775 M -0.8872617005737267 1.738433682242404 C -0.9840986424020934 1.6194497731625503 -1.301598282230099 1.2108068450303453 -1.301598282230099 0.9690731457995339 C -1.301598282230099 0.7406096941526097 -1.1157251522206508 0.5547365641431614 -0.8872617005737267 0.5547365641431614 C -0.6587982489268023 0.5547365641431614 -0.4728802869998412 0.7406096941526095 -0.4728802869998412 0.9690731457995339 C -0.4728802869998412 1.210627517360293 -0.7904247587453601 1.6194049412450373 -0.8872617005737267 1.738433682242404" fill="#e8a941" transform="matrix(1,0,0,1,0,0)" fill-rule="nonzero"></path></g><g clip-path="url(#ad8fc84fd-db7a-4084-b81b-13f532e4570fd386fed5-2940-43f1-b61e-2a99751b959c)"><path d=" M -0.8872617005737267 0.7448238943988441 C -1.0110846844365935 0.74494745799161 -1.1114322202991638 0.84529499385418 -1.1115557838919294 0.9691179777170471 C -1.111407516158268 1.0929234532701784 -1.011067203291967 1.193243710107531 -0.8872617005737353 1.1933672291177368 C -0.7634561978554948 1.1932437101075357 -0.6631158849891898 1.0929234532701868 -0.6629676172555241 0.9691179777170471 C -0.663091180848284 0.8452949938541905 -0.7634387167108492 0.7449474579916158 -0.8872617005737162 0.7448238943988441 M -0.8872617005737267 1.120470531241383 C -0.9708279500362 1.1203964184637707 -1.0385602238712655 1.0526842015649904 -1.0386590860155758 0.9691179777170471 C -1.0385849321356406 0.8855342453848389 -0.9708454329059071 0.817794746155118 -0.8872617005737127 0.8177205922751978 C -0.8036779682415323 0.8177947461551256 -0.7359384690118049 0.8855342453848527 -0.7358643151318773 0.9691179777170471 C -0.7359631772761865 1.0526842015649884 -0.8036954511112515 1.1203964184637696 -0.8872617005737249 1.120470531241383" fill="#e8a941" transform="matrix(1,0,0,1,0,0)" fill-rule="nonzero"></path></g><g clip-path="url(#ad8fc84fd-db7a-4084-b81b-13f532e4570fd386fed5-2940-43f1-b61e-2a99751b959c)"><path d=" M -2.802032897559624 -0.1579115966455959 C -2.802032897559624 0.11511478100938233 -2.4336041994366995 0.5603853857498162 -2.417913028307103 0.5791699591878186 C -2.4110144934336764 0.5875215089566876 -2.400747770140062 0.592357331711018 -2.389915495820152 0.592357331711018 C -2.3790832215002418 0.592357331711018 -2.3688164982066273 0.5875215089566876 -2.3619179633332004 0.5791699591878186 C -2.3462267922036038 0.5603853857498162 -1.9777980940806794 0.1151147810093821 -1.9777980940806794 -0.1579115966455959 C -1.9777980940806794 -0.3851645865196655 -2.1626849219048387 -0.5700065824263116 -2.389937911778908 -0.5700065824263116 C -2.617146069735465 -0.5700065824263116 -2.802032897559624 -0.3851645865196655 -2.802032897559624 -0.1579115966455959 M -2.389937911778908 -0.497154716467471 C -2.2028991519141186 -0.497154716467471 -2.0506947919570333 -0.3449503565103855 -2.0506947919570333 -0.1579115966455959 C -2.0506947919570333 0.04804623240973571 -2.304129621658772 0.38832048633441285 -2.389937911778908 0.49762070123143043 C -2.475746201899044 0.38832048633441285 -2.7291361996832704 0.04822556007978818 -2.7291361996832704 -0.1579115966455959 C -2.7291361996832704 -0.34495035651038547 -2.576976671643698 -0.497154716467471 -2.389937911778908 -0.497154716467471" fill="#e8a941" transform="matrix(1,0,0,1,0,0)" fill-rule="nonzero"></path></g><g clip-path="url(#ad8fc84fd-db7a-4084-b81b-13f532e4570fd386fed5-2940-43f1-b61e-2a99751b959c)"><path d=" M -2.389937911778908 0.028813339796601944 C -2.2868637823915967 0.028689823630811406 -2.203336491502501 -0.05483746725828409 -2.2032129753367107 -0.15791159664559568 C -2.2033365390545994 -0.2609784468815688 -2.28687103484361 -0.34449288636907827 -2.3899379117788984 -0.3445917011702803 C -2.492987281199657 -0.3444681850724592 -2.5764945002057718 -0.26096096606634456 -2.576618016303593 -0.1579115966455958 C -2.5765192015023843 -0.054844719710285705 -2.49300476201487 0.028689776078719698 -2.389937911778887 0.028813339796601944 M -2.389937911778908 -0.2717398352114397 C -2.3271732272605226 -0.2717398352114397 -2.2761096732130643 -0.22067628116398147 -2.2761096732130643 -0.15791159664559568 C -2.2761096732130643 -0.09514691212720994 -2.3271732272605226 -0.04408335807975183 -2.389937911778908 -0.04408335807975183 C -2.4527727880851664 -0.044157470454637915 -2.503692037969866 -0.09507672033933762 -2.5037661503447524 -0.15791159664559573 C -2.5037661503447524 -0.22067628116398147 -2.452702596297294 -0.27173983521143963 -2.389937911778908 -0.27173983521143963" fill="#e8a941" transform="matrix(1,0,0,1,0,0)" fill-rule="nonzero"></path></g><g clip-path="url(#ad8fc84fd-db7a-4084-b81b-13f532e4570fd386fed5-2940-43f1-b61e-2a99751b959c)"><path d=" M -1.2706642591460373 1.7591011962159584 L -2.389937911778908 1.7591011962159584 C -2.577021503561211 1.7591011962159584 -2.7291810316007834 1.6069416681763857 -2.7291810316007834 1.4198580763940831 C -2.7291810316007834 1.2328193165292933 -2.577021503561211 1.0806597884897213 -2.389937911778908 1.0806597884897213 L -1.8076609671183408 1.0806597884897213 C -1.6527424377659052 1.0804867936071048 -1.5272062409385192 0.9549305398701757 -1.5270579954036432 0.8000119848575105 C -1.5272309451356705 0.6451109375049446 -1.6527599197658167 0.5195819628748168 -1.8076609671183617 0.5194090131428128 L -2.044149332000116 0.5194090131428128 C -2.0637696865821296 0.52009744660433 -2.0793195780872358 0.5362025174758613 -2.0793195780872358 0.5558349461222332 C -2.0793195780872358 0.575467374768605 -2.0637696865821296 0.5915724456401366 -2.044149332000116 0.5922608791016535 L -1.8076609671183408 0.5922608791016535 C -1.6929846391765273 0.5924090718281347 -1.6000580540889648 0.685335656915697 -1.599909861362484 0.8000119848575105 C -1.6000580540889662 0.9146883127993262 -1.6929846391765297 1.0076148978868875 -1.807660967118343 1.0077630906133674 L -2.389937911778908 1.0077630906133674 C -2.617190901652978 1.0077630906133674 -2.802077729477137 1.1926050865200137 -2.802077729477137 1.4198580763940831 C -2.802077729477137 1.647111066268153 -2.617190901652978 1.831997894092312 -2.389937911778908 1.831997894092312 L -1.2706642591460373 1.831997894092312 C -1.2505343921891248 1.831997893638496 -1.2342159110256887 1.815679412104025 -1.2342159110295672 1.7955495451471126 C -1.2342159110334459 1.7754196781901999 -1.2505343922031702 1.7591011966620176 -1.2706642591600827 1.7591011962159584" fill="#e8a941" transform="matrix(1,0,0,1,0,0)" fill-rule="nonzero"></path></g></g></g><defs><clipPath id="SvgjsClipPath1114"><path d=" M -2.802032897559624 -0.5700350034673121 h 2.402032897559624 v 2.402032897559624 h -2.402032897559624 Z"></path></clipPath><clipPath id="ad8fc84fd-db7a-4084-b81b-13f532e4570fd386fed5-2940-43f1-b61e-2a99751b959c"><path d=" M -2.802032897559624 1.831997894092312 L -0.4000284210410001 1.831997894092312 L -0.4000284210410001 -0.5700065824263117 L -2.802032897559624 -0.5700065824263117 Z"></path></clipPath></defs></svg>