<svg xmlns="http://www.w3.org/2000/svg" version="1.1" xmlns:xlink="http://www.w3.org/1999/xlink" xmlns:svgjs="http://svgjs.dev/svgjs" viewBox="0 0 14.847675961067432 1.9136625995942822"><g transform="matrix(1,0,0,1,2.0925711838494023,0.42283129979714107)"><g><path d=" M 1.1355 0.6000000000000001 L 0.8385 0.6000000000000001 L 0.8385 0.6615 L 1.0065 0.6615 L 1.0065 0.933 Q 0.9390000000000001 0.9765 0.8685 0.9975 Q 0.798 1.0185 0.708 1.0185 Q 0.5895 1.0185 0.501 0.9825 Q 0.41250000000000003 0.9465000000000001 0.354 0.88275 Q 0.2955 0.8190000000000001 0.26625 0.7312500000000001 Q 0.23700000000000002 0.6435000000000001 0.23700000000000002 0.5385000000000001 Q 0.23700000000000002 0.43500000000000005 0.26475 0.3480000000000001 Q 0.2925 0.261 0.34800000000000003 0.19800000000000006 Q 0.4035 0.135 0.48375 0.10050000000000003 Q 0.5640000000000001 0.06600000000000006 0.6705 0.06600000000000006 Q 0.741 0.06600000000000006 0.8025 0.08100000000000007 Q 0.864 0.09600000000000009 0.912 0.12 Q 0.96 0.14400000000000002 0.99075 0.17475000000000007 Q 1.0215 0.20550000000000002 1.0305 0.237 L 1.1385 0.237 Q 1.125 0.20400000000000007 1.09275 0.16275000000000006 Q 1.0605 0.12150000000000005 1.0050000000000001 0.08550000000000002 Q 0.9495 0.0495000000000001 0.86775 0.02475000000000005 Q 0.786 0 0.675 0 Q 0.5475 0 0.44025000000000003 0.03600000000000003 Q 0.333 0.07200000000000006 0.255 0.13950000000000007 Q 0.177 0.20700000000000007 0.1335 0.30525 Q 0.09 0.4035000000000001 0.09 0.528 Q 0.09 0.6345000000000001 0.12375 0.7342500000000001 Q 0.1575 0.8340000000000001 0.22725 0.9127500000000001 Q 0.297 0.9915 0.405 1.03875 Q 0.513 1.086 0.663 1.086 Q 0.7755 1.086 0.8625 1.06125 Q 0.9495 1.0365 1.0065 1.0065 L 1.0065 1.068 L 1.1355 1.068 L 1.1355 0.6000000000000001 M 1.30052490234375 0.543 Q 1.30052490234375 0.627 1.33277490234375 0.7222500000000001 Q 1.36502490234375 0.8175000000000001 1.43402490234375 0.8985000000000001 Q 1.50302490234375 0.9795 1.60952490234375 1.03275 Q 1.71602490234375 1.086 1.86452490234375 1.086 Q 1.96502490234375 1.086 2.04677490234375 1.06125 Q 2.12852490234375 1.0365 2.1937749023437503 0.9945 Q 2.25902490234375 0.9525 2.30702490234375 0.89775 Q 2.35502490234375 0.8430000000000001 2.38577490234375 0.7822500000000001 Q 2.41652490234375 0.7215 2.43227490234375 0.66 Q 2.44802490234375 0.5985 2.44802490234375 0.543 Q 2.44802490234375 0.4590000000000001 2.4135249023437497 0.36375 Q 2.37902490234375 0.26850000000000007 2.30702490234375 0.1875 Q 2.23502490234375 0.10650000000000004 2.12477490234375 0.05325000000000002 Q 2.01452490234375 0 1.86452490234375 0 Q 1.71602490234375 0 1.60952490234375 0.05249999999999999 Q 1.50302490234375 0.1050000000000001 1.43402490234375 0.18525000000000003 Q 1.36502490234375 0.26550000000000007 1.33277490234375 0.36150000000000004 Q 1.30052490234375 0.4575 1.30052490234375 0.543 M 1.44752490234375 0.543 Q 1.44752490234375 0.43800000000000006 1.47977490234375 0.35025000000000006 Q 1.51202490234375 0.26250000000000007 1.56827490234375 0.1995 Q 1.62452490234375 0.13650000000000007 1.70102490234375 0.10125000000000006 Q 1.77752490234375 0.06600000000000006 1.86752490234375 0.06600000000000006 Q 1.9560249023437501 0.06600000000000006 2.03477490234375 0.10125000000000006 Q 2.11352490234375 0.13650000000000007 2.17277490234375 0.1995 Q 2.23202490234375 0.26250000000000007 2.26652490234375 0.35025000000000006 Q 2.30102490234375 0.43800000000000006 2.30102490234375 0.543 Q 2.30102490234375 0.6480000000000001 2.26652490234375 0.7357500000000001 Q 2.23202490234375 0.8235000000000001 2.17277490234375 0.8865000000000001 Q 2.11352490234375 0.9495 2.03477490234375 0.98475 Q 1.9560249023437501 1.02 1.86752490234375 1.02 Q 1.77752490234375 1.02 1.70102490234375 0.98475 Q 1.62452490234375 0.9495 1.56827490234375 0.8865000000000001 Q 1.51202490234375 0.8235000000000001 1.47977490234375 0.7357500000000001 Q 1.44752490234375 0.6480000000000001 1.44752490234375 0.543 M 3.65851025390625 0.6000000000000001 L 3.36151025390625 0.6000000000000001 L 3.36151025390625 0.6615 L 3.52951025390625 0.6615 L 3.52951025390625 0.933 Q 3.46201025390625 0.9765 3.39151025390625 0.9975 Q 3.32101025390625 1.0185 3.23101025390625 1.0185 Q 3.11251025390625 1.0185 3.02401025390625 0.9825 Q 2.93551025390625 0.9465000000000001 2.87701025390625 0.88275 Q 2.81851025390625 0.8190000000000001 2.78926025390625 0.7312500000000001 Q 2.76001025390625 0.6435000000000001 2.76001025390625 0.5385000000000001 Q 2.76001025390625 0.43500000000000005 2.78776025390625 0.3480000000000001 Q 2.81551025390625 0.261 2.87101025390625 0.19800000000000006 Q 2.92651025390625 0.135 3.00676025390625 0.10050000000000003 Q 3.08701025390625 0.06600000000000006 3.19351025390625 0.06600000000000006 Q 3.26401025390625 0.06600000000000006 3.32551025390625 0.08100000000000007 Q 3.38701025390625 0.09600000000000009 3.43501025390625 0.12 Q 3.48301025390625 0.14400000000000002 3.5137602539062502 0.17475000000000007 Q 3.54451025390625 0.20550000000000002 3.55351025390625 0.237 L 3.66151025390625 0.237 Q 3.64801025390625 0.20400000000000007 3.61576025390625 0.16275000000000006 Q 3.58351025390625 0.12150000000000005 3.52801025390625 0.08550000000000002 Q 3.47251025390625 0.0495000000000001 3.39076025390625 0.02475000000000005 Q 3.30901025390625 0 3.19801025390625 0 Q 3.07051025390625 0 2.96326025390625 0.03600000000000003 Q 2.85601025390625 0.07200000000000006 2.77801025390625 0.13950000000000007 Q 2.70001025390625 0.20700000000000007 2.65651025390625 0.30525 Q 2.61301025390625 0.4035000000000001 2.61301025390625 0.528 Q 2.61301025390625 0.6345000000000001 2.64676025390625 0.7342500000000001 Q 2.68051025390625 0.8340000000000001 2.75026025390625 0.9127500000000001 Q 2.82001025390625 0.9915 2.9280102539062502 1.03875 Q 3.03601025390625 1.086 3.1860102539062503 1.086 Q 3.29851025390625 1.086 3.38551025390625 1.06125 Q 3.47251025390625 1.0365 3.52951025390625 1.0065 L 3.52951025390625 1.068 L 3.65851025390625 1.068 L 3.65851025390625 0.6000000000000001 M 3.82353515625 0.543 Q 3.82353515625 0.627 3.85578515625 0.7222500000000001 Q 3.88803515625 0.8175000000000001 3.95703515625 0.8985000000000001 Q 4.02603515625 0.9795 4.13253515625 1.03275 Q 4.23903515625 1.086 4.38753515625 1.086 Q 4.48803515625 1.086 4.56978515625 1.06125 Q 4.6515351562500005 1.0365 4.71678515625 0.9945 Q 4.78203515625 0.9525 4.83003515625 0.89775 Q 4.87803515625 0.8430000000000001 4.90878515625 0.7822500000000001 Q 4.93953515625 0.7215 4.9552851562499995 0.66 Q 4.97103515625 0.5985 4.97103515625 0.543 Q 4.97103515625 0.4590000000000001 4.93653515625 0.36375 Q 4.90203515625 0.26850000000000007 4.83003515625 0.1875 Q 4.75803515625 0.10650000000000004 4.64778515625 0.05325000000000002 Q 4.53753515625 0 4.38753515625 0 Q 4.23903515625 0 4.13253515625 0.05249999999999999 Q 4.02603515625 0.1050000000000001 3.95703515625 0.18525000000000003 Q 3.88803515625 0.26550000000000007 3.85578515625 0.36150000000000004 Q 3.82353515625 0.4575 3.82353515625 0.543 M 3.97053515625 0.543 Q 3.97053515625 0.43800000000000006 4.00278515625 0.35025000000000006 Q 4.03503515625 0.26250000000000007 4.09128515625 0.1995 Q 4.14753515625 0.13650000000000007 4.22403515625 0.10125000000000006 Q 4.30053515625 0.06600000000000006 4.39053515625 0.06600000000000006 Q 4.47903515625 0.06600000000000006 4.5577851562500005 0.10125000000000006 Q 4.63653515625 0.13650000000000007 4.69578515625 0.1995 Q 4.75503515625 0.26250000000000007 4.78953515625 0.35025000000000006 Q 4.82403515625 0.43800000000000006 4.82403515625 0.543 Q 4.82403515625 0.6480000000000001 4.78953515625 0.7357500000000001 Q 4.75503515625 0.8235000000000001 4.69578515625 0.8865000000000001 Q 4.63653515625 0.9495 4.5577851562500005 0.98475 Q 4.47903515625 1.02 4.39053515625 1.02 Q 4.30053515625 1.02 4.22403515625 0.98475 Q 4.14753515625 0.9495 4.09128515625 0.8865000000000001 Q 4.03503515625 0.8235000000000001 4.00278515625 0.7357500000000001 Q 3.97053515625 0.6480000000000001 3.97053515625 0.543 M 6.1815205078125 0.6000000000000001 L 5.8845205078125 0.6000000000000001 L 5.8845205078125 0.6615 L 6.0525205078125 0.6615 L 6.0525205078125 0.933 Q 5.9850205078125 0.9765 5.9145205078125 0.9975 Q 5.8440205078125 1.0185 5.7540205078125 1.0185 Q 5.6355205078125 1.0185 5.5470205078125 0.9825 Q 5.4585205078125 0.9465000000000001 5.4000205078125 0.88275 Q 5.3415205078125 0.8190000000000001 5.3122705078125 0.7312500000000001 Q 5.2830205078125 0.6435000000000001 5.2830205078125 0.5385000000000001 Q 5.2830205078125 0.43500000000000005 5.3107705078125 0.3480000000000001 Q 5.3385205078125 0.261 5.3940205078125 0.19800000000000006 Q 5.4495205078125 0.135 5.5297705078125 0.10050000000000003 Q 5.6100205078125 0.06600000000000006 5.7165205078125 0.06600000000000006 Q 5.7870205078125 0.06600000000000006 5.8485205078125 0.08100000000000007 Q 5.9100205078125 0.09600000000000009 5.9580205078125 0.12 Q 6.0060205078125 0.14400000000000002 6.0367705078125 0.17475000000000007 Q 6.0675205078125 0.20550000000000002 6.0765205078125 0.237 L 6.1845205078125005 0.237 Q 6.1710205078125 0.20400000000000007 6.1387705078125006 0.16275000000000006 Q 6.1065205078125 0.12150000000000005 6.0510205078125 0.08550000000000002 Q 5.9955205078125005 0.0495000000000001 5.9137705078125 0.02475000000000005 Q 5.8320205078125 0 5.7210205078125 0 Q 5.5935205078125 0 5.4862705078125 0.03600000000000003 Q 5.3790205078125 0.07200000000000006 5.3010205078125 0.13950000000000007 Q 5.2230205078125 0.20700000000000007 5.1795205078125 0.30525 Q 5.1360205078125 0.4035000000000001 5.1360205078125 0.528 Q 5.1360205078125 0.6345000000000001 5.1697705078125 0.7342500000000001 Q 5.2035205078125 0.8340000000000001 5.2732705078125 0.9127500000000001 Q 5.3430205078125 0.9915 5.4510205078125 1.03875 Q 5.5590205078125 1.086 5.7090205078125 1.086 Q 5.8215205078125 1.086 5.9085205078125 1.06125 Q 5.9955205078125005 1.0365 6.0525205078125 1.0065 L 6.0525205078125 1.068 L 6.1815205078125 1.068 L 6.1815205078125 0.6000000000000001 M 6.45154541015625 0.018000000000000016 L 6.45154541015625 1.068 L 7.12954541015625 1.068 L 7.12954541015625 0.9855 L 6.58804541015625 0.9855 L 6.58804541015625 0.546 L 7.05304541015625 0.546 L 7.05304541015625 0.4770000000000001 L 6.58804541015625 0.4770000000000001 L 6.58804541015625 0.10050000000000003 L 7.12954541015625 0.10050000000000003 L 7.12954541015625 0.018000000000000016 L 6.45154541015625 0.018000000000000016 M 7.743030029296875 1.068 L 7.743030029296875 0.10050000000000003 L 8.145030029296874 0.10050000000000003 L 8.145030029296874 0.018000000000000016 L 7.204530029296875 0.018000000000000016 L 7.204530029296875 0.10050000000000003 L 7.606530029296875 0.10050000000000003 L 7.606530029296875 1.068 L 7.743030029296875 1.068 M 8.758525634765626 0.7590000000000001 L 8.902525634765626 1.068 L 9.048025634765626 1.068 L 8.559025634765625 0.018000000000000016 L 8.484025634765626 0.018000000000000016 L 8.040025634765625 1.068 L 8.109025634765626 1.068 L 8.241025634765625 0.7590000000000001 L 8.758525634765626 0.7590000000000001 M 8.727025634765624 0.6915 L 8.269525634765625 0.6915 L 8.485525634765626 0.18600000000000005 L 8.491525634765624 0.18600000000000005 L 8.727025634765624 0.6915 M 9.017991943359375 0.018000000000000016 L 9.389991943359375 1.068 L 9.479991943359375 1.068 L 9.766491943359375 0.24750000000000005 L 9.773991943359375 0.24750000000000005 L 10.051491943359375 1.068 L 10.139991943359375 1.068 L 10.511991943359375 0.018000000000000016 L 10.442991943359376 0.018000000000000016 L 10.132491943359375 0.894 L 10.126491943359374 0.894 L 9.833991943359376 0.018000000000000016 L 9.769491943359375 0.018000000000000016 L 9.470991943359374 0.8895000000000001 L 9.464991943359376 0.8895000000000001 L 9.155991943359375 0.018000000000000016 L 9.017991943359375 0.018000000000000016 M 11.200420166015626 0.7590000000000001 L 11.344420166015626 1.068 L 11.489920166015626 1.068 L 11.000920166015625 0.018000000000000016 L 10.925920166015626 0.018000000000000016 L 10.481920166015625 1.068 L 10.550920166015626 1.068 L 10.682920166015625 0.7590000000000001 L 11.200420166015626 0.7590000000000001 M 11.168920166015624 0.6915 L 10.711420166015625 0.6915 L 10.927420166015626 0.18600000000000005 L 10.933420166015624 0.18600000000000005 L 11.168920166015624 0.6915 M 11.444871826171875 0.018000000000000016 L 11.807871826171874 0.6705000000000001 L 11.807871826171874 1.068 L 11.944371826171874 1.068 L 11.944371826171874 0.657 L 12.313371826171874 0.018000000000000016 L 12.232371826171875 0.018000000000000016 L 11.911371826171875 0.5715000000000001 L 11.905371826171875 0.5715000000000001 L 11.599371826171875 0.018000000000000016 L 11.444871826171875 0.018000000000000016" fill="#3f170e" fill-rule="nonzero"></path></g><g></g><g clip-path="url(#SvgjsClipPath1029)"><g clip-path="url(#ac77739a9-3aa7-42a8-86f2-1ac7218494a82d6640b0-53fd-490d-a795-c002dcd6d8ec)"><path d=" M -0.6740869412681918 1.0940639249228608 C -0.6795615227050056 1.0940633678537732 -0.6846600219050523 1.0912786453991292 -0.6876192551011187 1.0866727816245552 C -0.6982168502714831 1.070042709203368 -0.9481027097244867 0.6774425681227899 -0.9481027097244867 0.5317392211907538 C -0.9480729226421959 0.38035521690255036 -0.82547075853762 0.257582839559594 -0.6740869412680106 0.25734302624116323 C -0.5462997286626801 0.2568727032353856 -0.4353080628782968 0.3451646083129505 -0.40702754297500787 0.46978404942554614 C -0.40240807841356685 0.4900010002120875 -0.40007117281189664 0.5108157640595213 -0.40007117281189664 0.5317392211907537 C -0.40007117281189664 0.5446737219627882 -0.4019733052783725 0.5599451283364929 -0.40577757021132377 0.5771186671766732 C -0.4161577788140909 0.6240198191357733 -0.4410485408039726 0.6879314700093558 -0.47979769647817694 0.7671688738985423 C -0.5552851820763114 0.921513336892568 -0.659522041239178 1.0850423823675763 -0.6605546274352647 1.0866727816245552 C -0.6635138606313311 1.0912786453991292 -0.6686123598313778 1.0940633678537732 -0.6740869412681918 1.0940639249228608 M -0.6740869412681918 0.28935319831985423 C -0.8077920262567532 0.289592971381509 -0.9160627805912773 0.3980339245214098 -0.9160925376457961 0.5317392211907537 C -0.9160925376457961 0.6497257807541444 -0.7268575305524168 0.9628711313779389 -0.6740869412681918 1.0478692793084519 C -0.6435441285207824 0.9986855683895808 -0.567187096652259 0.8729817856764888 -0.5085470700429091 0.7530930936466222 C -0.4709391938485903 0.6761382487172067 -0.4469179781290975 0.6146178500871936 -0.43708123594532333 0.5702166436554617 C -0.4337660907894658 0.5552713171331527 -0.43208134489058714 0.5423368163611182 -0.43208134489058714 0.5317392211907538 C -0.43208134489058714 0.5132613629449901 -0.43414651728276077 0.4948378513411258 -0.43827686206710803 0.4769578061562545 C -0.46324680235127014 0.3669163594834829 -0.561248764751384 0.28894844655303986 -0.674086941268192 0.28935319831985423" fill="url(#gradient-7d773f30-b090-4be2-9a49-3c3dea8c8d63_0)" transform="matrix(1,0,0,1,0,0)" fill-rule="nonzero"></path></g><g clip-path="url(#ac77739a9-3aa7-42a8-86f2-1ac7218494a82d6640b0-53fd-490d-a795-c002dcd6d8ec)"><path d=" M -1.360702415024009 0.9160786727026374 C -1.3649633146361646 0.9161078579758122 -1.369058161700042 0.9144281233911548 -1.3720711433864314 0.9114151417047651 C -1.3750841250728212 0.9084021600183755 -1.3767638596574787 0.9043073129544983 -1.3767346743843039 0.9000464133423426 L -1.3767346743843039 0.13212836330516528 C -1.3767346743843039 0.1257698062029466 -1.3729847560932518 0.12006340880351962 -1.3671696654100263 0.11745476999235299 L -1.0448940789471486 -0.024716045216228433 C -1.0399485345343118 -0.026889910892200553 -1.0341877904929855 -0.026455137757006152 -1.029677019215343 -0.023520419094443714 C -1.025159789934985 -0.020543126226263378 -1.0224275535166067 -0.01550683969387961 -1.0223945692008365 -0.010096798545315436 L -1.0223945692008365 0.7578755981337612 C -1.0223864775143843 0.7642188398080645 -1.0261440063847571 0.7699618810928948 -1.031959578175115 0.7724948448046745 L -1.3542351646379918 0.9147200066551548 C -1.3562716861236992 0.9156217107204947 -1.358475207258602 0.9160846353286676 -1.360702415024009 0.9160786727026374 M -1.3447245023056134 0.14256291854983183 L -1.3447245023056134 0.8754817312038568 L -1.0544590879214262 0.7474410428890946 L -1.0544590879214262 0.014522230235069822 Z" fill="url(#gradient-7d773f30-b090-4be2-9a49-3c3dea8c8d63_1)" transform="matrix(1,0,0,1,0,0)" fill-rule="nonzero"></path></g><g clip-path="url(#ac77739a9-3aa7-42a8-86f2-1ac7218494a82d6640b0-53fd-490d-a795-c002dcd6d8ec)"><path d=" M -1.35749596315195 0.9160786727026374 C -1.3597231709173572 0.9160846353286676 -1.36192669205226 0.9156217107204947 -1.3639632135379673 0.9147200066551548 L -1.686238800000845 0.7724948448046741 C -1.6920543717912027 0.7699618810928941 -1.695811900661575 0.7642188398080636 -1.6958038089751226 0.7578755981337612 L -1.6958038089751226 -0.010096798545315436 C -1.695786706195303 -0.015506286529438064 -1.693042815350755 -0.020542387529563843 -1.6885067414223995 -0.02348973991296363 C -1.6839706674940442 -0.026437092296363533 -1.6782541462136304 -0.026898215599654267 -1.6733042992288099 -0.0247160452162282 L -1.3510287127659328 0.11745476999235299 C -1.345223560656464 0.12002924896275885 -1.3414762503308943 0.12577796366675784 -1.3414637037916552 0.13212836330516528 L -1.3414637037916552 0.9000464133423426 C -1.3414345185184804 0.9043073129544986 -1.3431142531031381 0.9084021600183758 -1.346127234789528 0.9114151417047653 C -1.3491402164759174 0.914428123391155 -1.3532350635397947 0.9161078579758123 -1.3574959631519503 0.9160786727026374 M -1.6637392902545327 0.7474410428890946 L -1.373528222512245 0.8754817312038568 L -1.373528222512245 0.14256291854983183 L -1.6637392902545327 0.014522230235069822 Z" fill="url(#gradient-7d773f30-b090-4be2-9a49-3c3dea8c8d63_2)" transform="matrix(1,0,0,1,0,0)" fill-rule="nonzero"></path></g><g clip-path="url(#ac77739a9-3aa7-42a8-86f2-1ac7218494a82d6640b0-53fd-490d-a795-c002dcd6d8ec)"><path d=" M -0.9186468298150634 0.826678446778281 C -0.9208206954910356 0.826678446778281 -0.9229945611670077 0.8262436736430866 -0.9251140802010807 0.8253197807307984 L -1.0448397323052492 0.772494844804674 C -1.050654335374379 0.769931479526799 -1.0544061774443865 0.7641758127148557 -1.054404741279527 0.7578212514918617 L -1.054404741279527 -0.010096798545315436 C -1.054404741279527 -0.015531462735245907 -1.0516874091845616 -0.02058570043188128 -1.04712229126502 -0.023520419094443714 C -1.042590051293323 -0.026490454128547346 -1.0368613833921674 -0.02696102327757082 -1.0319052315332147 -0.02477039185812773 L -0.7096296450703371 0.11745476999235288 C -0.7038235979369972 0.11999900389307858 -0.7000706858069919 0.12573498890996157 -0.7000646360960593 0.132074016663266 L -0.7000646360960593 0.2774512837439063 C -0.700558847105171 0.2859288424874354 -0.707577770253092 0.29255050448285735 -0.7160697221354048 0.29255050448285735 C -0.7245616740177173 0.29255050448285735 -0.7315805971656383 0.2859288424874354 -0.73207480817475 0.2774512837439063 L -0.73207480817475 0.14256291854983172 L -1.0223945692008363 0.014467883593170291 L -1.0223945692008363 0.7473866962471952 L -0.9121795794290462 0.796026940747073 C -0.9051924580389686 0.7990368528752847 -0.9012966224809819 0.8065558395266779 -0.9028672457894542 0.8139998020979243 C -0.9044378690979263 0.8214437646691707 -0.9110392932861496 0.8267479039627642 -0.9186468298150634 0.826678446778281" fill="url(#gradient-7d773f30-b090-4be2-9a49-3c3dea8c8d63_3)" transform="matrix(1,0,0,1,0,0)" fill-rule="nonzero"></path></g><g clip-path="url(#ac77739a9-3aa7-42a8-86f2-1ac7218494a82d6640b0-53fd-490d-a795-c002dcd6d8ec)"><path d=" M -0.6764238468698618 0.6776056080484878 C -0.5971246883994874 0.6776056080484878 -0.5328400189718985 0.6133209386208989 -0.5328400189718985 0.5340217801505245 C -0.5328400189718985 0.4547226216801501 -0.5971246883994874 0.39043795225256117 -0.6764238468698618 0.39043795225256117 C -0.7557230053402361 0.39043795225256117 -0.8200076747678251 0.4547226216801501 -0.8200076747678251 0.5340217801505245 C -0.8200076747678251 0.6133209386208989 -0.7557230053402362 0.6776056080484878 -0.6764238468698618 0.6776056080484878 Z" fill="none" transform="matrix(1,0,0,1,0,0)" fill-rule="nonzero" stroke-dasharray="none" stroke-miterlimit="4" stroke-linejoin="miter" stroke-linecap="butt" stroke-width="0.04075998142447863" stroke="url(#gradient-7d773f30-b090-4be2-9a49-3c3dea8c8d63_4)"></path></g></g></g><defs><clipPath id="SvgjsClipPath1029"><path d=" M -1.6958038089751226 -0.026063924922860915 h 1.2958038089751225 v 1.120127849845722 h -1.2958038089751225 Z"></path></clipPath><clipPath id="ac77739a9-3aa7-42a8-86f2-1ac7218494a82d6640b0-53fd-490d-a795-c002dcd6d8ec"><path d=" M -1.6958038089751226 1.0940639249228608 L -0.40001682616999745 1.0940639249228608 L -0.40001682616999745 -0.02607471126371105 L -1.6958038089751226 -0.02607471126371105 Z"></path></clipPath><linearGradient id="gradient-7d773f30-b090-4be2-9a49-3c3dea8c8d63_0" x1="0" x2="1" y1="0" y2="1"><stop stop-color="#974724" offset="0"></stop><stop stop-color="#3f170e" offset="1"></stop></linearGradient><linearGradient id="gradient-7d773f30-b090-4be2-9a49-3c3dea8c8d63_1" x1="0" x2="1" y1="0" y2="1"><stop stop-color="#c25f2f" offset="0"></stop><stop stop-color="#6f311a" offset="1"></stop></linearGradient><linearGradient id="gradient-7d773f30-b090-4be2-9a49-3c3dea8c8d63_2" x1="0" x2="1" y1="0" y2="1"><stop stop-color="#d56a34" offset="0"></stop><stop stop-color="#813c1f" offset="1"></stop></linearGradient><linearGradient id="gradient-7d773f30-b090-4be2-9a49-3c3dea8c8d63_3" x1="0" x2="1" y1="0" y2="1"><stop stop-color="#b0552b" offset="0"></stop><stop stop-color="#622a17" offset="1"></stop></linearGradient><linearGradient id="gradient-7d773f30-b090-4be2-9a49-3c3dea8c8d63_4" x1="0" x2="1" y1="0" y2="1"><stop stop-color="#883f20" offset="0"></stop><stop stop-color="#602916" offset="1"></stop></linearGradient></defs></svg>