<svg xmlns="http://www.w3.org/2000/svg" version="1.1" xmlns:xlink="http://www.w3.org/1999/xlink" xmlns:svgjs="http://svgjs.dev/svgjs" viewBox="0 0 6.224742195510776 4.788878304363826"><g transform="matrix(1,0,0,1,3.1155713314427764,4.522176596575164)"><g transform="matrix(1,0,0,1,0,0)"><path d=" M -2.4320504212581757 -1.336729655752746 Q -2.4891111677754187 -1.3005900485759248 -2.5157391319352245 -1.241953869260556 Q -2.5423670960950306 -1.1833176899451872 -2.5335700618159027 -1.1108496819148028 Q -2.524773027536775 -1.0383816738844185 -2.4844674826827085 -0.9843449913991212 Q -2.4441619378286417 -0.930308308913824 -2.37808041522248 -0.9045841496457092 Q -2.311998892616318 -0.8788599903775944 -2.2305964726369827 -0.8887415905267518 Q -2.1491940526576467 -0.8986231906759092 -2.091682876636646 -0.9393505111460982 Q -2.0341717006156452 -0.9800778316162874 -2.007965512071962 -1.0421885044673596 Q -1.9817593235282784 -1.1042991773184316 -1.9905563578074064 -1.176767185348816 Q -2.002848104334407 -1.2780238541035995 -2.0713570461464057 -1.3361919286101553 Q -2.139865987958404 -1.394360003116711 -2.244433662098546 -1.3927470787784224 L -2.2109326274465246 -1.1167730207996984 L -2.2843933479156817 -1.1078554792016784 L -2.3295835925002426 -1.480122643741324 L -2.2600937217861756 -1.4885581560637753 Q -2.1737563935006126 -1.4909800859783222 -2.0972341174593474 -1.4539315870955822 Q -2.0207118414180822 -1.4168830882128418 -1.9704762262921158 -1.3474307090389375 Q -1.9202406111661496 -1.2779783298650331 -1.9091539378280706 -1.1866487854979735 Q -1.8974647278955308 -1.0903556789370517 -1.9329925583483014 -1.0054556008256672 Q -1.968520388801072 -0.9205555227142829 -2.04332650601315 -0.8646333014811016 Q -2.1181326232252276 -0.8087110802479203 -2.2193892919800113 -0.7964193337209197 Q -2.3206459607347947 -0.7841275871939191 -2.40715561482323 -0.8204673691071238 Q -2.4936652689116654 -0.8568071510203286 -2.548474270387182 -0.9307410631125261 Q -2.603283271862699 -1.0046749752047237 -2.6149724817952387 -1.1009680817656455 Q -2.6283487941922687 -1.2111591624693805 -2.584052985825067 -1.3026639785234888 Q -2.539757177457866 -1.394168794577597 -2.4451857190174215 -1.4449353115789365 L -2.4320504212581757 -1.336729655752746 M -1.9310340567711128 -1.7497832486566955 Q -1.9801621592330987 -1.6976518804751044 -2.0513516397031357 -1.6788753560255096 Q -2.1225411201731728 -1.6600988315759146 -2.2049974413988216 -1.6807375110378522 Q -2.2864836882571096 -1.70113338250612 -2.340190993182917 -1.7522022125064864 Q -2.3938982981087245 -1.803271042506853 -2.4120689601814638 -1.8727626034321792 Q -2.430239622254203 -1.9422541643575053 -2.411300598747954 -2.01791996501163 Q -2.392361575241706 -2.093585765665755 -2.3435971059665652 -2.1463235750278615 Q -2.2948326366914245 -2.199061384389968 -2.223885385411398 -2.218929387203758 Q -2.1529381341313716 -2.2387973900175484 -2.0704818129057228 -2.2181587105556106 Q -1.9880254916800737 -2.1975200310936733 -1.934560994747936 -2.1454811267259464 Q -1.8810964978157987 -2.0934422223582194 -1.862683606553049 -2.0228591830686975 Q -1.8442707152902995 -1.9522761437791758 -1.863209738796548 -1.876610343125051 Q -1.8819059543091268 -1.8019146168382867 -1.9310340567711128 -1.7497832486566955 M -1.9407890632170608 -1.9908664082702188 Q -1.9526600299385504 -2.03816418992113 -1.9908490390048856 -2.0750403283649987 Q -2.029038048071221 -2.111916466808867 -2.093062956317019 -2.1279417943910772 Q -2.157087864562817 -2.143967121973288 -2.2080242932968197 -2.129914356130726 Q -2.2589607220308223 -2.1158615902881643 -2.2909853310305692 -2.080581646716592 Q -2.3230099400303157 -2.0453017031450194 -2.3349075317201384 -1.9977680591443512 Q -2.3470479314036314 -1.9492643407763226 -2.3352977898753173 -1.9035430746732869 Q -2.3235476483470032 -1.8578218085702514 -2.2849944272901634 -1.8224007816774237 Q -2.246441206233323 -1.786979754784596 -2.1824162979875252 -1.7709544272023856 Q -2.1174213153743664 -1.7546862916265056 -2.0668490986308687 -1.7672839459180263 Q -2.0162768818873706 -1.7798816002095472 -1.9844950808812938 -1.814191469413759 Q -1.952713279875217 -1.848501338617971 -1.9408156881853942 -1.8960349826186391 Q -1.9289180964955712 -1.9435686266193073 -1.9407890632170608 -1.9908664082702188 M -1.8607654752202265 -2.982327881221362 Q -1.9273623541877163 -2.9935909053174705 -1.9863623897107954 -2.9677791675170937 Q -2.0453624252338747 -2.941967429716717 -2.087260680182175 -2.8821883678949787 Q -2.1291589351304765 -2.822409306073241 -2.135302076821536 -2.7552768861096824 Q -2.141445218512596 -2.6881444661461242 -2.109491796278479 -2.6248398153886305 Q -2.0775383740443623 -2.561535164631137 -2.0103892909021357 -2.5144713714015388 Q -1.9432402077599094 -2.4674075781719402 -1.873241668393939 -2.4592556160381536 Q -1.8032431290279687 -2.451103653904367 -1.7422342730621627 -2.479781511107156 Q -1.681225417096357 -2.508459368309945 -1.639327162148056 -2.568238430131683 Q -1.580784394960019 -2.65176533843055 -1.5928561476249254 -2.7408230320207014 Q -1.6049279002898318 -2.829880725610853 -1.6837791554272215 -2.8985791940308863 L -1.843336893449518 -2.6709274243535823 L -1.9039348465290882 -2.713399627999805 L -1.6887040848083643 -3.0204838496868156 L -1.6313816967601225 -2.9803074408322807 Q -1.5655486381699433 -2.9243967227483383 -1.533399553339362 -2.845690392986647 Q -1.5012504685087809 -2.766984063224956 -1.5103126336528967 -2.6817483479237936 Q -1.519374798797012 -2.5965126326226313 -1.5721780790058297 -2.5211746369020847 Q -1.627851102704257 -2.441742184892378 -1.7110265507693687 -2.4023455500212636 Q -1.7942019988344804 -2.3629489151501493 -1.8872208051722443 -2.371360316192636 Q -1.9802396115100083 -2.379771717235123 -2.0637665198088753 -2.4383144844231603 Q -2.147293428107742 -2.496857251611197 -2.1873444511676827 -2.5817125139810235 Q -2.227395474227623 -2.66656777635085 -2.218739130625226 -2.7581937427328604 Q -2.210082787022829 -2.8498197091148705 -2.1544097633244017 -2.929252161124577 Q -2.0907014578550673 -3.0201490907439323 -1.996589825001981 -3.0585971149028643 Q -1.9024781921488942 -3.097045139061797 -1.7982050671467362 -3.0715870283250526 L -1.8607654752202265 -2.982327881221362 M -1.2120252720852782 -2.9546364216874013 Q -1.283411846541645 -2.948702874065144 -1.3489107668518778 -2.9823241684809423 Q -1.4144096871621106 -3.01594546289674 -1.4619413862122315 -3.086413452689331 Q -1.5089138888029392 -3.156052407307892 -1.5147222765829773 -3.2299358468014394 Q -1.5205306643630152 -3.303819286294987 -1.4875937262488497 -3.36765037674207 Q -1.4546567881346841 -3.431481467189152 -1.3899920445603062 -3.475098791023381 Q -1.3253273009859285 -3.5187161148576096 -1.253805807172253 -3.5253437782965884 Q -1.1822843133585774 -3.5319714417355677 -1.116235956104021 -3.4993238613661983 Q -1.0501875988494642 -3.466676280996828 -1.0026558997993433 -3.3962082912042373 Q -0.9551242007492223 -3.325740301411646 -0.9501448481432149 -3.251297665458685 Q -0.9451654955372074 -3.1768550295057247 -0.9786518705956968 -3.1120502250122137 Q -1.0121382456541863 -3.0472454205187027 -1.076802989228564 -3.003628096684474 Q -1.1406386976289113 -2.9605699693096588 -1.2120252720852782 -2.9546364216874013 M -1.0581289885373177 -3.140464793875627 Q -1.0353419946205102 -3.1835780506330953 -1.039095599641709 -3.2365323748129473 Q -1.0428492046629079 -3.289486698992799 -1.0797561709841783 -3.344203020478811 Q -1.1166631373054487 -3.398919341964823 -1.1639410889632478 -3.422515852025482 Q -1.2112190406210472 -3.446112362086142 -1.2586204382671242 -3.4412794022064737 Q -1.3060218359132012 -3.4364464423268055 -1.346644559440695 -3.4090458158155594 Q -1.3880963181422192 -3.3810859928449 -1.4099193575276876 -3.339226048363567 Q -1.431742396913156 -3.2973661038822337 -1.4267452391309114 -3.245250574391502 Q -1.421748081348667 -3.1931350449007696 -1.3848411150273965 -3.138418723414758 Q -1.3473749522467129 -3.0828733667547152 -1.3013405533499594 -3.058438062004936 Q -1.255306154453206 -3.034002757255157 -1.2087337919811594 -3.038276520675412 Q -1.1621614295091127 -3.0425502840956664 -1.121538705981619 -3.069950910606913 Q -1.0809159824541252 -3.097351537118159 -1.0581289885373177 -3.140464793875627 M -0.33586992642089647 -3.8243810710419512 Q -0.37787317202991466 -3.877274618458517 -0.43900876593955895 -3.8975153980214454 Q -0.5001443598492032 -3.917756177584374 -0.5712657622166427 -3.901301812653184 Q -0.6423871645840823 -3.8848474477219943 -0.6918307373690185 -3.8390235117249554 Q -0.7412743101539548 -3.7931995757279164 -0.759824572771898 -3.724756988424357 Q -0.7783748353898412 -3.656314401120798 -0.759891850124669 -3.5764246066806606 Q -0.7414088648594968 -3.496534812240523 -0.6947960209547982 -3.443681309205093 Q -0.6481831770500995 -3.3908278061696633 -0.5836376528899616 -3.3713759345143943 Q -0.5190921287298236 -3.351924062859126 -0.4479707263623841 -3.3683784277903155 Q -0.3485956162051399 -3.3913694582421154 -0.2980436121579012 -3.465676220295161 Q -0.24749160811066262 -3.539982982348207 -0.2602165194367163 -3.643786048929807 L -0.5310624079044994 -3.581124220835686 L -0.5477421750950208 -3.653219888988981 L -0.18239250539926988 -3.7377457362382445 L -0.16661434724607405 -3.669547131228371 Q -0.15502387923041916 -3.583957055570161 -0.18372384383757168 -3.5039285479522615 Q -0.2124238084447243 -3.4239000403343622 -0.2761395486216227 -3.366562840771513 Q -0.33985528879852106 -3.309225641208664 -0.4294877410972119 -3.288488633350178 Q -0.5239915223251794 -3.2666246141950355 -0.6121885879931835 -3.2929215267049434 Q -0.7003856536611877 -3.319218439214852 -0.7639465957093017 -3.3876527628102253 Q -0.8275075377574156 -3.456087086405599 -0.8504985682092152 -3.5554621965628432 Q -0.8734895986610148 -3.654837306720087 -0.8465565237542483 -3.744721173326206 Q -0.8196234488474816 -3.8346050399323244 -0.7519379887786322 -3.896966313935252 Q -0.6842525287097825 -3.959327587938179 -0.5897487474818149 -3.9811916070933218 Q -0.48160524525187276 -4.006211257879103 -0.38590839629801627 -3.971898532829892 Q -0.29021154734415977 -3.937585807780681 -0.22967495576266483 -3.8489499173090707 L -0.33586992642089647 -3.8243810710419512 M 0.5503441721008153 -3.528623067468638 L 0.11624229620108484 -3.5869288248201636 Q 0.11041522550251195 -3.505984119946566 0.15440890763365803 -3.4541665946048083 Q 0.19840258976480407 -3.402349069263051 0.2697618022414721 -3.392764561205266 Q 0.3282367124654084 -3.3849105893245808 0.3710459189156511 -3.40690767647494 Q 0.4138551253658938 -3.428904763625299 0.4358361638420716 -3.472365480916996 L 0.532963980824203 -3.459319900505011 Q 0.5006434417818182 -3.3839515864996565 0.42864148105514527 -3.343677926974917 Q 0.35663952032847235 -3.3034042674501776 0.2595117033463409 -3.3164498478621627 Q 0.18220588982995053 -3.326833064924763 0.12591236503421988 -3.369708338289168 Q 0.0696188402384892 -3.412583611653573 0.04351645597520801 -3.4811687086920116 Q 0.0174140717119268 -3.54975380573045 0.028729115946811906 -3.6339973204598497 Q 0.040044160181697014 -3.718240835189249 0.08226112879148806 -3.777145228585667 Q 0.12447809740127908 -3.8360496219820845 0.19002333483612166 -3.8620558106611296 Q 0.25556857227096424 -3.888061999340175 0.3348565861339287 -3.877412545942636 Q 0.41216239965031914 -3.8670293288800357 0.46710239235358836 -3.8253448329401216 Q 0.5220423850568576 -3.7836603370002075 0.5463326097242676 -3.7203635362468774 Q 0.5706228343916773 -3.6570667354935473 0.5606389718314844 -3.5827342224970185 Q 0.5571778994772842 -3.5569656179915548 0.5503441721008153 -3.528623067468638 M 0.45912357272731114 -3.7058434168925647 Q 0.44132020002180516 -3.7460713912426216 0.4047675474426166 -3.770656012236754 Q 0.368214894863428 -3.7952406332308866 0.3206420865456493 -3.80163030526941 Q 0.2522561745888425 -3.810815458824787 0.19833061681577382 -3.7736632823224148 Q 0.14440505904270523 -3.736511105820042 0.12708414076709537 -3.6601371194759365 L 0.4700048007244167 -3.614078233531581 Q 0.47692694543281705 -3.6656154425425074 0.45912357272731114 -3.7058434168925647 M 0.9121021055895646 -3.63613774052597 L 0.7901808496961006 -3.337032061273034 Q 0.7750822421551142 -3.299991110281958 0.7845964707156646 -3.2782948097932203 Q 0.794110699276215 -3.2565985093044825 0.8330036978168445 -3.2407449713864467 L 0.8950472907268963 -3.2154548037552946 L 0.8659824712104978 -3.144150973097474 L 0.7900485216787925 -3.1751031185564957 Q 0.7196707147957486 -3.2037904728843696 0.6976930929525897 -3.250544982165498 Q 0.6757154711094308 -3.2972994914466263 0.7059126861914033 -3.3713813934287775 L 0.8278339420848675 -3.670487072681714 L 0.7620862540757081 -3.6972871010669643 L 0.7903961432150572 -3.7667388841752314 L 0.8561438312242167 -3.7399388557899806 L 0.9082340272406193 -3.8677301367091923 L 0.9925021907453165 -3.8333808045534483 L 0.9404119947289139 -3.705589523634237 L 1.0728333945220097 -3.651612001675211 L 1.0445235053826605 -3.582160218566944 L 0.9121021055895646 -3.63613774052597 M 1.2261142993842633 -3.438621942181804 Q 1.2917632741747185 -3.4682608036471536 1.3602691298409968 -3.4597638783543756 Q 1.428774985507275 -3.451266953061598 1.4866618833538587 -3.4067910375825528 Q 1.5437558099970645 -3.3629243812196585 1.5668962511754003 -3.3060515407589257 Q 1.5900366923537361 -3.2491787002981924 1.582018765182449 -3.1960683167194994 L 1.6429446767975797 -3.2753654370572853 L 1.7158980275083429 -3.219313598371365 L 1.3820240318574264 -2.784765378920299 L 1.3090706811466635 -2.840817217606219 L 1.3712151109940969 -2.921700280350761 Q 1.3205604509276319 -2.9000876587247086 1.2589448293881502 -2.907704428532401 Q 1.1973292078486688 -2.9153211983400937 1.1410282524088409 -2.9585785955868364 Q 1.0831413545622572 -3.0030545110658817 1.0582893817444108 -3.067547762240412 Q 1.033437408926564 -3.1320410134149417 1.046078230561552 -3.204298951583647 Q 1.0587190521965397 -3.276556889752352 1.1092875588370983 -3.3423734996327146 Q 1.1604653245938081 -3.4089830807164545 1.2261142993842633 -3.438621942181804 M 1.5225926425481677 -3.1597566664037213 Q 1.5307942818066813 -3.2114648196628854 1.5120198540088294 -3.2567861265820737 Q 1.4932454262109776 -3.3021074335012615 1.452803894838707 -3.3331796484249785 Q 1.412362363466436 -3.364251863348695 1.3644353541369347 -3.370809437345981 Q 1.3165083448074333 -3.3773670113432677 1.2686581453800267 -3.3561218138916686 Q 1.22080794595262 -3.33487661644007 1.183033880751239 -3.2857124018306427 Q 1.1446505564337066 -3.235755216017838 1.1361442876171173 -3.1836505771569845 Q 1.127638018800528 -3.1315459382961315 1.146015960996691 -3.0865292609350194 Q 1.1643939031928539 -3.041512583573907 1.2048354345651249 -3.0104403686501904 Q 1.2452769659373955 -2.9793681537264733 1.2939050904266614 -2.9729024357728004 Q 1.3425332149159275 -2.9664367178191275 1.3906880439014095 -2.988078400872415 Q 1.4388428728868918 -3.0097200839257026 1.476616938088273 -3.05888429853513 Q 1.5143910032896541 -3.108048513144557 1.5225926425481677 -3.1597566664037213 M 2.3381517383601125 -2.3224681652213945 L 1.7788081508148408 -2.1933180546059363 L 1.7313376404923473 -2.2744509742484715 L 2.0401324562575973 -2.608059669813358 L 1.5980162072461948 -2.502313642180697 L 1.5505456969237013 -2.583446561823232 L 1.936672422334767 -3.0086455175173015 L 1.983637927228298 -2.9283757140411764 L 1.6502351747290231 -2.5873205797506817 L 2.115949349616525 -2.7022392784417706 L 2.1629148545100563 -2.621969474965646 L 1.83218402384711 -2.274367522081319 L 2.2927012497534696 -2.40014862019829 L 2.3381517383601125 -2.3224681652213945 M 2.2909148048654853 -2.008191822407433 Q 2.358614711833486 -1.983595631716108 2.401742715394576 -1.9296954897048424 Q 2.4448707189556664 -1.875795347693577 2.45528184547134 -1.803541569628519 Q 2.4655503538155656 -1.7322775693451744 2.4424260056691804 -1.6753981835995038 Q 2.4193016575227952 -1.6185187978538333 2.376490174239916 -1.586081521471256 L 2.475467952411228 -1.600343338616014 L 2.488588824184405 -1.5092837826984067 L 1.9461905998056144 -1.431129024745133 L 1.9330697280324372 -1.5221885806627404 L 2.0340270617671754 -1.5367356341503935 Q 1.982667037615861 -1.556613962027164 1.943858965319452 -1.605074600948217 Q 1.9050508930230432 -1.6535352398692704 1.894925002850265 -1.7238094623709022 Q 1.8845138763345919 -1.7960632404359602 1.911731404360857 -1.859594383729147 Q 1.9389489323871223 -1.9231255270223342 1.9984354703692575 -1.9660481527446731 Q 2.057922008351393 -2.008970778467012 2.1400735642335817 -2.020808086697161 Q 2.223214897897484 -2.0327880130987577 2.2909148048654853 -2.008191822407433 M 2.3085891641423735 -1.6015557848699915 Q 2.3505534878149876 -1.632860665299408 2.368741771180437 -1.6784203662226815 Q 2.3869300545458865 -1.7239800671459549 2.3796565278020596 -1.774458734013324 Q 2.372383001058233 -1.8249374008806933 2.34263837109632 -1.8630852315979025 Q 2.3128937411344066 -1.9012330623151117 2.2637985088894137 -1.9194170709713512 Q 2.2147032766444203 -1.9376010796275907 2.153337054178207 -1.9287587529978407 Q 2.09098105393028 -1.9197738081966431 2.048521841366809 -1.8883976186815026 Q 2.0060626288033387 -1.857021429166362 1.9878030363521655 -1.8119566171339452 Q 1.9695434439009925 -1.7668918051015283 1.9768169706448189 -1.7164131382341592 Q 1.9840904973886455 -1.66593447136679 2.014401325327139 -1.627363060844448 Q 2.0447121532656327 -1.588791650322106 2.0943022744014823 -1.5706789507515904 Q 2.143892395537332 -1.5525662511810747 2.205258618003546 -1.5614085778108246 Q 2.2666248404697593 -1.5702509044405746 2.3085891641423735 -1.6015557848699915 M 2.39120570982715 -0.716055888942644 L 1.655691718521134 -1.1824839847871091 L 1.6722009075948856 -1.275022877562672 L 1.9131293679436452 -1.122335363358084 L 2.4855188431527324 -1.2447089253306998 L 2.467780246381999 -1.1452788384122758 L 2.000473343051837 -1.0539319276819463 L 2.407714898900902 -0.8085947817182069 L 2.39120570982715 -0.716055888942644" fill="#00acd7" fill-rule="nonzero"></path></g><g transform="matrix(1,0,0,1,0,0)"><g clip-path="url(#SvgjsClipPath1002)"><g clip-path="url(#abc520c35-db95-4ef3-bc47-a3a1b36c86dbd882bc90-5707-4e53-9598-6cdc08cffdb5)"><path d=" M -0.25711050382045353 -0.2410294446103629 C -0.2572005425997652 -0.21150979344206133 -0.28110858403612493 -0.18760175200570206 -0.3106282352044256 -0.18751171322639193 L -1.434629439758128 -0.18751171322639193 C -1.4641490909264285 -0.18760175200570295 -1.4880571323627885 -0.21150979344206222 -1.4881471711420993 -0.2410294446103629 L -1.4881471711420993 -1.0011475580775164 C -1.4880635606700234 -1.0306717834342443 -1.4641536461103628 -1.0545869310677867 -1.4346294397581294 -1.054677002687879 L -0.31062823520442473 -1.054677002687879 C -0.2811040288521913 -1.0545869310677873 -0.25719411429253025 -1.030671783434246 -0.25711050382045353 -1.0011475580775164 Z" fill="#f9ad41" transform="matrix(1,0,0,1,0,0)" fill-rule="nonzero"></path></g><g clip-path="url(#SvgjsClipPath1001d882bc90-5707-4e53-9598-6cdc08cffdb5)"><path d=" M -0.6708802261095279 -1.1691972171201586 L -1.0743657356266332 -1.1691972171201586 L -1.0743657356266332 -0.9400982221236405 L -0.6708802261095279 -0.9400982221236405 Z" fill="none" transform="matrix(1,0,0,1,0,0)" fill-rule="nonzero" stroke-dasharray="none" stroke-miterlimit="10" stroke-linejoin="round" stroke-linecap="butt" stroke-width="0.0364632737575623" stroke="#f9ad41"></path></g><g clip-path="url(#SvgjsClipPath1001d882bc90-5707-4e53-9598-6cdc08cffdb5)"><path d=" M -1.265958979716722 -0.1875 L -1.2126169467286272 -0.1875 L -1.2126169467286272 -1.0546652894614874 L -1.265958979716722 -1.0546652894614874 Z M -0.5163359170965897 -0.1875 L -0.4630055973348868 -0.1875 L -0.4630055973348868 -1.0546652894614874 L -0.5163359170965897 -1.0546652894614874 Z" fill="#ffffff" transform="matrix(1,0,0,1,0,0)" fill-rule="nonzero"></path></g><g clip-path="url(#SvgjsClipPath1001d882bc90-5707-4e53-9598-6cdc08cffdb5)"><path d=" M -0.026034174894432383 -0.47467974600944673 L -0.6055694770797553 -0.47470317246223015 L -0.36133699358507765 -2.278949999717646 L 0.2077032577532245 -2.201560712947259 Z" fill="#99d0f1" transform="matrix(1,0,0,1,0,0)" fill-rule="nonzero"></path></g><g clip-path="url(#SvgjsClipPath1001d882bc90-5707-4e53-9598-6cdc08cffdb5)"><path d=" M -0.026034174894432383 -0.47467974600944673 L -0.6055694770797553 -0.47470317246223015 L -0.36133699358507765 -2.278949999717646 L 0.2077032577532245 -2.201560712947259 Z" fill="none" transform="matrix(1,0,0,1,0,0)" fill-rule="nonzero" stroke-dasharray="none" stroke-miterlimit="10" stroke-linejoin="round" stroke-linecap="butt" stroke-width="0.02744408943590378" stroke="#99d0f1"></path></g><g clip-path="url(#SvgjsClipPath1001d882bc90-5707-4e53-9598-6cdc08cffdb5)"><path d=" M 0.14479780249619756 -2.2133778485086095 L -0.2971305160386781 -2.273255861823309 L -0.24898915556852685 -2.627545820495004 L 0.19293916296634905 -2.567656093953913 Z" fill="#99d0f1" transform="matrix(1,0,0,1,0,0)" fill-rule="nonzero"></path></g><g clip-path="url(#bbc520c35-db95-4ef3-bc47-a3a1b36c86dbd882bc90-5707-4e53-9598-6cdc08cffdb5)"><path d=" M 0.14479372013376346 -2.213372783813988 L -0.2971345984011122 -2.273250797128687 L -0.24899323793096095 -2.6275407558003825 L 0.19293508060391495 -2.5676510292592916 Z" fill="none" transform="matrix(1,0,0,1,0,0)" fill-rule="nonzero" stroke-dasharray="none" stroke-miterlimit="10" stroke-linejoin="round" stroke-linecap="butt" stroke-width="0.02744408943590378" stroke="#99d0f1"></path></g><g clip-path="url(#bbc520c35-db95-4ef3-bc47-a3a1b36c86dbd882bc90-5707-4e53-9598-6cdc08cffdb5)"><path d=" M -0.16712949867892024 -2.254181664562895 L -0.24292578666002695 -2.2644775905612557 C -0.24292578666002695 -2.2644775905612557 -0.20807893814452827 -2.5212432262951214 -0.20263228787235765 -2.5615367250827905 C -0.1971504979210119 -2.6018302238704596 -0.12157676124134875 -2.5899764387619943 -0.12681257343846752 -2.551264225537213 L -0.16712949867892024 -2.254181664562895" fill="#00acd7" transform="matrix(1,0,0,1,0,0)" fill-rule="nonzero"></path></g><g clip-path="url(#bbc520c35-db95-4ef3-bc47-a3a1b36c86dbd882bc90-5707-4e53-9598-6cdc08cffdb5)"><path d=" M -0.038389427407038434 -2.236728957239166 L -0.11420914184092879 -2.247024883237527 C -0.11420914184092879 -2.247024883237527 -0.07936229332542988 -2.5037905189713925 -0.0739156430532597 -2.5440840177590616 C -0.06843385310191397 -2.5843775165467306 0.00711645712496578 -2.5725237314382654 0.0019040713806308673 -2.533811518213484 C -0.003366880495663027 -2.4950875917623114 -0.038389427407038434 -2.236728957239166 -0.038389427407038434 -2.236728957239166" fill="#00acd7" transform="matrix(1,0,0,1,0,0)" fill-rule="nonzero"></path></g><g clip-path="url(#bbc520c35-db95-4ef3-bc47-a3a1b36c86dbd882bc90-5707-4e53-9598-6cdc08cffdb5)"><path d=" M 0.09029207773288417 -2.2192762499154375 L 0.014495789751777233 -2.229548749461015 C 0.014495789751777233 -2.229548749461015 0.04929578536170909 -2.4863143851948806 0.05478928853944676 -2.526631310435333 C 0.06024765203800864 -2.5669248092230026 0.13585652839684736 -2.5550475976617535 0.13058557652055347 -2.5163353844369722 C 0.12531462464425958 -2.4776114579857995 0.09029207773288417 -2.2192762499154375 0.09029207773288417 -2.2192762499154375" fill="#00acd7" transform="matrix(1,0,0,1,0,0)" fill-rule="nonzero"></path></g><g clip-path="url(#bbc520c35-db95-4ef3-bc47-a3a1b36c86dbd882bc90-5707-4e53-9598-6cdc08cffdb5)"><path d=" M -0.4421326279047626 -0.7103081467700081 L -0.5179289158858695 -0.7205806463155855 C -0.5179289158858695 -0.7205806463155855 -0.4830820673703706 -0.977346282049451 -0.47763541709820023 -1.0176397808371203 C -0.4721536271468545 -1.057956706077573 -0.3965681772407994 -1.0460912077427156 -0.4018157026643099 -1.0073672812915428 C -0.40705151486142843 -0.9686784945195452 -0.4421326279047626 -0.7103081467700081 -0.4421326279047626 -0.7103081467700081" fill="#00acd7" transform="matrix(1,0,0,1,0,0)" fill-rule="nonzero"></path></g><g clip-path="url(#bbc520c35-db95-4ef3-bc47-a3a1b36c86dbd882bc90-5707-4e53-9598-6cdc08cffdb5)"><path d=" M -0.313392556632881 -0.6928437262198877 L -0.38921227106677136 -0.7031162257654651 L -0.34889534582631865 -1.0001753602869996 C -0.3434369823277563 -1.0404922855274523 -0.2678281059689178 -1.0286150739662034 -0.27309905784521193 -0.9899028607414222 L -0.313392556632881 -0.6928437262198877" fill="#00acd7" transform="matrix(1,0,0,1,0,0)" fill-rule="nonzero"></path></g><g clip-path="url(#bbc520c35-db95-4ef3-bc47-a3a1b36c86dbd882bc90-5707-4e53-9598-6cdc08cffdb5)"><path d=" M -0.18469933826656648 -0.675379305669767 L -0.2604956262476734 -0.6856752316681278 C -0.2604956262476734 -0.6856752316681278 -0.2256487777321745 -0.9424408674019935 -0.22020212746000412 -0.9827343661896626 C -0.214743763961442 -1.0230512914301155 -0.13913488760260329 -1.011150653416083 -0.14440583947889718 -0.9724384401913018 L -0.18469933826656648 -0.675379305669767" fill="#00acd7" transform="matrix(1,0,0,1,0,0)" fill-rule="nonzero"></path></g><g clip-path="url(#bbc520c35-db95-4ef3-bc47-a3a1b36c86dbd882bc90-5707-4e53-9598-6cdc08cffdb5)"><path d=" M -0.05601783312664388 -0.6579031718932544 L -0.13180240788135889 -0.6681990978916152 C -0.13180240788135889 -0.6681990978916152 -0.09696727259225191 -0.9249647336254809 -0.09148548264090617 -0.96525823241315 C -0.08601540591595236 -1.005575157653603 -0.010453382462680683 -0.9936745196395702 -0.015677481433407525 -0.9549623064147892 L -0.05601783312664388 -0.6579031718932544" fill="#00acd7" transform="matrix(1,0,0,1,0,0)" fill-rule="nonzero"></path></g><g clip-path="url(#bbc520c35-db95-4ef3-bc47-a3a1b36c86dbd882bc90-5707-4e53-9598-6cdc08cffdb5)"><path d=" M -0.38925912397233864 -1.0999251962392644 L -0.465078838406229 -1.1101976957848418 L -0.42476191316577605 -1.40728025675916 C -0.41928012321443053 -1.4475737555468293 -0.34369467330837544 -1.4357199704383636 -0.3489421987318857 -1.3970077572135828 L -0.38925912397233864 -1.0999251962392644" fill="#00acd7" transform="matrix(1,0,0,1,0,0)" fill-rule="nonzero"></path></g><g clip-path="url(#bbc520c35-db95-4ef3-bc47-a3a1b36c86dbd882bc90-5707-4e53-9598-6cdc08cffdb5)"><path d=" M -0.2605541923796324 -1.082460775689144 L -0.3363387671343474 -1.0927332752347214 C -0.3363387671343474 -1.0927332752347214 -0.3015036318452404 -1.3494989109685867 -0.2960569815730698 -1.3898158362090394 C -0.29059861807450793 -1.4301093349967087 -0.2149897417156692 -1.4182555498882432 -0.2202606935919631 -1.3795433366634622 C -0.22549650578908165 -1.3408194102122892 -0.2605541923796324 -1.082460775689144 -0.2605541923796324 -1.082460775689144" fill="#00acd7" transform="matrix(1,0,0,1,0,0)" fill-rule="nonzero"></path></g><g clip-path="url(#bbc520c35-db95-4ef3-bc47-a3a1b36c86dbd882bc90-5707-4e53-9598-6cdc08cffdb5)"><path d=" M -0.1318609740133181 -1.0649963551390234 L -0.2076572619944248 -1.0752922811373842 C -0.2076572619944248 -1.0752922811373842 -0.17281041347892612 -1.3320579168712499 -0.1673637632067555 -1.3723748421117026 C -0.16188197325540998 -1.4126683408993719 -0.08629652334935489 -1.4008028425645145 -0.09154404877286537 -1.3620789161133418 L -0.1318609740133181 -1.0649963551390234" fill="#00acd7" transform="matrix(1,0,0,1,0,0)" fill-rule="nonzero"></path></g><g clip-path="url(#bbc520c35-db95-4ef3-bc47-a3a1b36c86dbd882bc90-5707-4e53-9598-6cdc08cffdb5)"><path d=" M -0.003120902741436282 -1.047531934588903 L -0.07894061717532663 -1.0578278605872637 C -0.07894061717532663 -1.0578278605872637 -0.044117195112611585 -1.3145934963211292 -0.038623691934873916 -1.354910421561582 C -0.033165328436311814 -1.3952039203492512 0.042431834696134985 -1.3833267087880021 0.03717259604623302 -1.344614495563221 C 0.031901644169939125 -1.3058905691120481 -0.003120902741436282 -1.047531934588903 -0.003120902741436282 -1.047531934588903" fill="#00acd7" transform="matrix(1,0,0,1,0,0)" fill-rule="nonzero"></path></g><g clip-path="url(#bbc520c35-db95-4ef3-bc47-a3a1b36c86dbd882bc90-5707-4e53-9598-6cdc08cffdb5)"><path d=" M -0.33638562003991446 -1.4895656721613044 L -0.41220533447380503 -1.4998381717068816 L -0.3718884092333521 -1.7968973062284164 C -0.36643004573479 -1.8371908050160857 -0.2908211693759515 -1.8253135934548366 -0.2960921212522454 -1.786624806682839 C -0.30136307312853927 -1.7479008802316662 -0.33638562003991446 -1.4895656721613044 -0.33638562003991446 -1.4895656721613044" fill="#00acd7" transform="matrix(1,0,0,1,0,0)" fill-rule="nonzero"></path></g><g clip-path="url(#bbc520c35-db95-4ef3-bc47-a3a1b36c86dbd882bc90-5707-4e53-9598-6cdc08cffdb5)"><path d=" M -0.20770411489999163 -1.472089538384792 L -0.28350040288109857 -1.4823620379303692 C -0.28350040288109857 -1.4823620379303692 -0.24865355436559966 -1.739127673664235 -0.24320690409342927 -1.779421172451904 C -0.23772511414208353 -1.8197146712395733 -0.16213966423602844 -1.8078608861311078 -0.16738718965953892 -1.7691486729063266 L -0.20770411489999163 -1.472089538384792" fill="#00acd7" transform="matrix(1,0,0,1,0,0)" fill-rule="nonzero"></path></g><g clip-path="url(#bbc520c35-db95-4ef3-bc47-a3a1b36c86dbd882bc90-5707-4e53-9598-6cdc08cffdb5)"><path d=" M -0.07898747008089368 -1.4546368310610633 L -0.15480718451478404 -1.4649327570594242 L -0.11449025927433132 -1.761991891580959 C -0.10900846932298558 -1.802285390368628 -0.033446445869714125 -1.7904081788073791 -0.03867054484044097 -1.751695965582598 C -0.04394149671673486 -1.7129720391314254 -0.07898747008089368 -1.4546368310610633 -0.07898747008089368 -1.4546368310610633" fill="#00acd7" transform="matrix(1,0,0,1,0,0)" fill-rule="nonzero"></path></g><g clip-path="url(#bbc520c35-db95-4ef3-bc47-a3a1b36c86dbd882bc90-5707-4e53-9598-6cdc08cffdb5)"><path d=" M 0.04971746151181278 -1.4371606972845508 L -0.02607882646929416 -1.4474566232829116 C -0.02607882646929416 -1.4474566232829116 0.008768022046204749 -1.7041988325639936 0.014214672318375143 -1.7445157578044463 C 0.019673035816937245 -1.7848092565921154 0.09528191217577597 -1.7729320450308665 0.09001096029948208 -1.7342198318060853 L 0.04971746151181278 -1.4371606972845508" fill="#00acd7" transform="matrix(1,0,0,1,0,0)" fill-rule="nonzero"></path></g><g clip-path="url(#bbc520c35-db95-4ef3-bc47-a3a1b36c86dbd882bc90-5707-4e53-9598-6cdc08cffdb5)"><path d=" M -0.2835355425602739 -1.8791475819513852 L -0.35933183054138085 -1.889443507949746 C -0.35933183054138085 -1.889443507949746 -0.32448498202588216 -2.1462091436836115 -0.31903833175371155 -2.1865026424712806 C -0.31357996825514944 -2.22679614125895 -0.23797109189631072 -2.2149423561504844 -0.2432420437726046 -2.1762301429257036 C -0.24847785596972338 -2.137506216474531 -0.2835355425602739 -1.8791475819513852 -0.2835355425602739 -1.8791475819513852" fill="#00acd7" transform="matrix(1,0,0,1,0,0)" fill-rule="nonzero"></path></g><g clip-path="url(#bbc520c35-db95-4ef3-bc47-a3a1b36c86dbd882bc90-5707-4e53-9598-6cdc08cffdb5)"><path d=" M -0.15483061096756767 -1.861706587854048 L -0.2306503254014578 -1.8719790873996254 L -0.19033340016100508 -2.16903822192116 C -0.18485161020965957 -2.209331720708829 -0.10926616030360448 -2.1974896488267555 -0.11451368572711496 -2.1587657223755827 L -0.15483061096756767 -1.861706587854048" fill="#00acd7" transform="matrix(1,0,0,1,0,0)" fill-rule="nonzero"></path></g><g clip-path="url(#bbc520c35-db95-4ef3-bc47-a3a1b36c86dbd882bc90-5707-4e53-9598-6cdc08cffdb5)"><path d=" M -0.026113966148469725 -1.8442421673039278 L -0.10193368058235985 -1.854514666849505 C -0.10193368058235985 -1.854514666849505 -0.0671102585196448 -2.1112803025833706 -0.06161675534190714 -2.151597227823823 C -0.05615839184334526 -2.1918907266114926 0.01945048451549347 -2.1800135150502435 0.014179532639199577 -2.1413013018254623 L -0.026113966148469725 -1.8442421673039278" fill="#00acd7" transform="matrix(1,0,0,1,0,0)" fill-rule="nonzero"></path></g><g clip-path="url(#bbc520c35-db95-4ef3-bc47-a3a1b36c86dbd882bc90-5707-4e53-9598-6cdc08cffdb5)"><path d=" M 0.1025675389914531 -1.8267660335274152 L 0.026771251010346164 -1.8370385330729926 C 0.026771251010346164 -1.8370385330729926 0.06161809952584507 -2.093804168806858 0.06706474979801547 -2.1341210940473108 C 0.07252311329657757 -2.17441459283498 0.1481319896554163 -2.1625373812737307 0.1428610377791224 -2.12382516804895 C 0.13763693880839556 -2.085101241597777 0.1025675389914531 -1.8267660335274152 0.1025675389914531 -1.8267660335274152" fill="#00acd7" transform="matrix(1,0,0,1,0,0)" fill-rule="nonzero"></path></g><g clip-path="url(#SvgjsClipPath1001d882bc90-5707-4e53-9598-6cdc08cffdb5)"><path d=" M -0.46074823275712595 -1.9016793300576715 L 0.20352054914621998 -1.8115226265202615 M -0.5133640457089313 -1.5135732867929528 L 0.15085788328884764 -1.4234165832555428 M -0.5659798586607365 -1.125455530301842 L 0.09824207033704213 -1.0352988267644323" fill="none" transform="matrix(1,0,0,1,0,0)" fill-rule="nonzero" stroke-dasharray="none" stroke-miterlimit="10" stroke-linejoin="round" stroke-linecap="round" stroke-width="0.02744408943590378" stroke="#00acd7"></path></g><g clip-path="url(#cbc520c35-db95-4ef3-bc47-a3a1b36c86dbd882bc90-5707-4e53-9598-6cdc08cffdb5)"><path d=" M 1.4881368020996457 -0.47367754720358546 C 1.4881368020996457 -0.4410210720233465 1.4614072194736396 -0.4143149158501238 1.428774170746184 -0.4143149158501238 L -0.4927220526907926 -0.4143149158501238 C -0.5253668146446397 -0.4143149158501238 -0.5520963972706457 -0.4410210720233465 -0.5520963972706457 -0.47367754720358546 L -0.5520963972706457 -1.0336400480882704 C -0.5520963972706457 -1.0662965232685093 -0.5253668146446395 -1.0930143926681237 -0.4927220526907926 -1.0930143926681237 L 1.428774170746184 -1.0930143926681237 C 1.4614072194736396 -1.0930143926681237 1.4881368020996457 -1.0662965232685093 1.4881368020996457 -1.0336400480882704 Z" fill="#9aca5d" transform="matrix(1,0,0,1,0,0)" fill-rule="nonzero"></path></g><g clip-path="url(#cbc520c35-db95-4ef3-bc47-a3a1b36c86dbd882bc90-5707-4e53-9598-6cdc08cffdb5)"><path d=" M -0.5520846840442543 -0.7691436829358402 L 1.4881485153260372 -0.7691436829358402" fill="none" transform="matrix(1,0,0,1,0,0)" fill-rule="nonzero" stroke-dasharray="none" stroke-miterlimit="10" stroke-linejoin="round" stroke-linecap="butt" stroke-width="0.03044267539219545" stroke="#ffffff"></path></g><g clip-path="url(#SvgjsClipPath1001d882bc90-5707-4e53-9598-6cdc08cffdb5)"><path d=" M 0.6752238007924465 -0.8625349245446887 L 0.6752238007924465 -0.7536721984596311 L 0.2675566694534812 -0.7536721984596311 L 0.2675566694534812 -0.8625349245446887 L 0.18048054445710515 -0.8625349245446887 L 0.18048054445710515 -0.6764820365379045 L 0.7555765338399496 -0.6764820365379045 L 0.7555765338399496 -0.8625349245446887 Z" fill="#ffffff" transform="matrix(1,0,0,1,0,0)" fill-rule="nonzero"></path></g><g clip-path="url(#dbc520c35-db95-4ef3-bc47-a3a1b36c86dbd882bc90-5707-4e53-9598-6cdc08cffdb5)"><path d=" M -0.26669192300891664 -0.7335589011576602 C -0.26669192300891664 -0.7056462826660861 -0.28382837322006793 -0.6828172044285372 -0.30474819555575894 -0.6828172044285372 C -0.32565630466505824 -0.6828172044285372 -0.3427810416498176 -0.7056462826660861 -0.3427810416498176 -0.7335589011576602 L -0.3427810416498176 -0.8054546847503097 C -0.3427810416498176 -0.8333673032418838 -0.32565630466505824 -0.8561963814794327 -0.30474819555575894 -0.8561963814794327 C -0.28382837322006793 -0.8561963814794327 -0.26669192300891664 -0.8333673032418838 -0.26669192300891664 -0.8054546847503097 Z" fill="#ffffff" transform="matrix(1,0,0,1,0,0)" fill-rule="nonzero"></path></g><g clip-path="url(#dbc520c35-db95-4ef3-bc47-a3a1b36c86dbd882bc90-5707-4e53-9598-6cdc08cffdb5)"><path d=" M 1.278868299384384 -0.7335589011576602 C 1.278868299384384 -0.7056462826660861 1.2617318491732328 -0.6828172044285372 1.2408354532903254 -0.6828172044285372 C 1.2199039177282422 -0.6828172044285372 1.202779180743483 -0.7056462826660861 1.202779180743483 -0.7335589011576602 L 1.202779180743483 -0.8054546847503097 C 1.202779180743483 -0.8333673032418838 1.2199039177282422 -0.8561963814794327 1.2408354532903254 -0.8561963814794327 C 1.2617318491732328 -0.8561963814794327 1.278868299384384 -0.8333673032418838 1.278868299384384 -0.8054546847503097 Z" fill="#ffffff" transform="matrix(1,0,0,1,0,0)" fill-rule="nonzero"></path></g></g></g></g><defs><clipPath id="SvgjsClipPath1002"><path d=" M -1.4881471711420993 -2.6412660066267533 h 2.9762943422841985 v 2.4537660066267533 h -2.9762943422841985 Z"></path></clipPath><clipPath id="abc520c35-db95-4ef3-bc47-a3a1b36c86dbd882bc90-5707-4e53-9598-6cdc08cffdb5"><path d=" M -1.4881471711420993 -0.1875 L 1.4881368020996457 -0.1875 L 1.4881368020996457 -2.6412569439051388 L -1.4881471711420993 -2.6412569439051388 Z"></path></clipPath><clipPath id="SvgjsClipPath1001d882bc90-5707-4e53-9598-6cdc08cffdb5"><path d=" M -1.4881471711420993 -2.6412660066267533 L 1.4881471711420993 -2.6412660066267533 L 1.4881471711420993 -0.1875 L -1.4881471711420993 -0.1875 Z"></path></clipPath><clipPath id="bbc520c35-db95-4ef3-bc47-a3a1b36c86dbd882bc90-5707-4e53-9598-6cdc08cffdb5"><path d=" M -1.4881471711420993 -0.1875 L 1.4881368020996457 -0.1875 L 1.4881368020996457 -2.6412569439051388 L -1.4881471711420993 -2.6412569439051388 Z"></path></clipPath><clipPath id="cbc520c35-db95-4ef3-bc47-a3a1b36c86dbd882bc90-5707-4e53-9598-6cdc08cffdb5"><path d=" M -1.4881471711420993 -0.1875 L 1.4881368020996457 -0.1875 L 1.4881368020996457 -2.6412569439051388 L -1.4881471711420993 -2.6412569439051388 Z"></path></clipPath><clipPath id="dbc520c35-db95-4ef3-bc47-a3a1b36c86dbd882bc90-5707-4e53-9598-6cdc08cffdb5"><path d=" M -1.4881471711420993 -0.1875 L 1.4881368020996457 -0.1875 L 1.4881368020996457 -2.6412569439051388 L -1.4881471711420993 -2.6412569439051388 Z"></path></clipPath></defs></svg>